999
"DXF R12 Output" (www.mydxf.blogspot.com)
 0 
SECTION
 2 
HEADER
 9 
$ACADVER
 1 
AC1009
 9 
$EXTMIN
 10 
 0 
 20 
 0 
 9 
$EXTMAX
 10 
 8.5 
 20 
 11 
 0 
ENDSEC
 0 
SECTION
 2 
ENTITIES
0
LINE
8
Layer 1
10
0.846666
20
148.292000
11
-0.846666
21
146.598000
0
LINE
8
Layer 1
10
0.000000
20
148.856000
11
0.000000
21
146.034000
0
LINE
8
Layer 1
10
2.257780
20
146.316000
11
1.128890
21
145.187110
0
LINE
8
Layer 1
10
1.693330
20
146.881000
11
0.564440
21
145.752110
0
LINE
8
Layer 1
10
1.128890
20
147.445000
11
0.000000
21
146.316110
0
LINE
8
0
10
23.534900
20
-149.952000
11
23.534899
21
-168.085300
0
LINE
8
0
10
23.534899
20
-168.085300
11
19.268300
21
-168.085000
0
LINE
8
0
10
19.268300
20
-168.085000
11
19.268300
21
-177.685000
0
LINE
8
0
10
19.268300
20
-177.685000
11
23.534900
21
-177.685000
0
LINE
8
0
10
23.534900
20
-177.685000
11
23.534901
21
-194.751700
0
LINE
8
0
10
23.534901
20
-194.751700
11
-11.665000
21
-194.752000
0
LINE
8
0
10
-11.665000
20
-194.752000
11
-11.665000
21
-190.485000
0
LINE
8
0
10
-11.665000
20
-190.485000
11
-30.865000
21
-190.485000
0
LINE
8
0
10
-30.865000
20
-190.485000
11
-30.865000
21
-194.752000
0
LINE
8
0
10
-30.865000
20
-194.752000
11
-63.931700
21
-194.752000
0
LINE
8
0
10
-63.931700
20
-194.752000
11
-63.931700
21
-177.685000
0
LINE
8
0
10
-63.931700
20
-177.685000
11
-59.665000
21
-177.685000
0
LINE
8
0
10
-59.665000
20
-177.685000
11
-59.665000
21
-168.085000
0
LINE
8
0
10
-59.665000
20
-168.085000
11
-63.931700
21
-168.085000
0
LINE
8
0
10
-63.931700
20
-168.085000
11
-63.931700
21
-149.952000
0
LINE
8
0
10
-63.931700
20
-149.952000
11
-30.865000
21
-149.952000
0
LINE
8
0
10
-30.865000
20
-149.952000
11
-30.865000
21
-154.219000
0
LINE
8
0
10
-30.865000
20
-154.219000
11
-11.665000
21
-154.219000
0
LINE
8
0
10
-11.665000
20
-154.219000
11
-11.665000
21
-149.952000
0
LINE
8
0
10
-11.665000
20
-149.952000
11
23.534900
21
-149.952000
0
LINE
8
0
10
9.829020
20
-138.025000
11
8.717570
21
-136.874070
0
LINE
8
0
10
8.717570
20
-136.874070
11
8.306220
21
-137.121237
0
LINE
8
0
10
8.306220
20
-137.121237
11
7.828150
21
-137.163065
0
LINE
8
0
10
7.828150
20
-137.163065
11
7.605473
21
-138.747485
0
LINE
8
0
10
7.605473
20
-138.747485
11
8.800648
21
-138.642916
0
LINE
8
0
10
8.800648
20
-138.642916
11
9.829023
21
-138.024997
0
LINE
8
0
10
9.829023
20
-138.024997
11
9.829020
21
-138.025000
0
LINE
8
0
10
7.234340
20
-130.826000
11
7.457017
21
-132.410430
0
LINE
8
0
10
7.457017
20
-132.410430
11
8.307272
21
-132.388734
0
LINE
8
0
10
8.307272
20
-132.388734
11
9.130259
21
-132.556817
0
LINE
8
0
10
9.130259
20
-132.556817
11
9.894867
21
-132.904572
0
LINE
8
0
10
9.894867
20
-132.904572
11
10.569987
21
-133.421890
0
LINE
8
0
10
10.569987
20
-133.421890
11
11.681437
21
-132.270950
0
LINE
8
0
10
11.681437
20
-132.270950
11
10.716982
21
-131.531923
0
LINE
8
0
10
10.716982
20
-131.531923
11
9.624685
21
-131.035129
0
LINE
8
0
10
9.624685
20
-131.035129
11
8.448990
21
-130.795007
0
LINE
8
0
10
8.448990
20
-130.795007
11
7.234340
21
-130.826000
0
LINE
8
0
10
7.234340
20
-130.826000
11
7.234340
21
-130.826000
0
LINE
8
0
10
4.971980
20
-130.456000
11
4.220820
21
-129.044000
0
LINE
8
0
10
4.220820
20
-129.044000
11
2.719543
21
-130.077245
0
LINE
8
0
10
2.719543
20
-130.077245
11
1.504539
21
-131.405126
0
LINE
8
0
10
1.504539
20
-131.405126
11
0.617005
21
-132.970944
0
LINE
8
0
10
0.617005
20
-132.970944
11
0.098138
21
-134.718000
0
LINE
8
0
10
0.098138
20
-134.718000
11
1.673828
21
-134.995842
0
LINE
8
0
10
1.673828
20
-134.995842
11
2.088823
21
-133.598014
0
LINE
8
0
10
2.088823
20
-133.598014
11
2.798823
21
-132.345181
0
LINE
8
0
10
2.798823
20
-132.345181
11
3.770864
21
-131.282718
0
LINE
8
0
10
3.770864
20
-131.282718
11
4.971980
21
-130.456000
0
LINE
8
0
10
4.971980
20
-130.456000
11
4.971980
21
-130.456000
0
LINE
8
0
10
1.673830
20
-137.218000
11
0.098140
21
-137.495819
0
LINE
8
0
10
0.098140
20
-137.495819
11
0.616823
21
-139.243210
0
LINE
8
0
10
0.616823
20
-139.243210
11
1.504304
21
-140.809356
0
LINE
8
0
10
1.504304
20
-140.809356
11
2.719373
21
-142.137528
0
LINE
8
0
10
2.719373
20
-142.137528
11
4.220820
21
-143.171000
0
LINE
8
0
10
4.220820
20
-143.171000
11
4.971974
21
-141.758280
0
LINE
8
0
10
4.971974
20
-141.758280
11
3.770797
21
-140.931477
0
LINE
8
0
10
3.770797
20
-140.931477
11
2.798734
21
-139.868905
0
LINE
8
0
10
2.798734
20
-139.868905
11
2.088756
21
-138.615951
0
LINE
8
0
10
2.088756
20
-138.615951
11
1.673830
21
-137.218000
0
LINE
8
0
10
1.673830
20
-137.218000
11
1.673830
21
-137.218000
0
LINE
8
0
10
12.422400
20
-131.503000
11
13.533850
21
-130.352060
0
LINE
8
0
10
13.533850
20
-130.352060
11
12.087166
21
-129.243520
0
LINE
8
0
10
12.087166
20
-129.243520
11
10.448719
21
-128.498329
0
LINE
8
0
10
10.448719
20
-128.498329
11
8.685176
21
-128.138149
0
LINE
8
0
10
8.685176
20
-128.138149
11
6.863200
21
-128.184640
0
LINE
8
0
10
6.863200
20
-128.184640
11
7.085877
21
-129.769070
0
LINE
8
0
10
7.085877
20
-129.769070
11
8.543458
21
-129.731878
0
LINE
8
0
10
8.543458
20
-129.731878
11
9.954293
21
-130.020023
0
LINE
8
0
10
9.954293
20
-130.020023
11
11.265050
21
-130.616176
0
LINE
8
0
10
11.265050
20
-130.616176
11
12.422397
21
-131.503010
0
LINE
8
0
10
12.422397
20
-131.503010
11
12.422400
21
-131.503000
0
LINE
8
0
10
12.770200
20
-133.769000
11
13.175022
21
-134.914622
0
LINE
8
0
10
13.175022
20
-134.914622
11
13.309963
21
-136.106975
0
LINE
8
0
10
13.309963
20
-136.106975
11
13.175022
21
-137.299328
0
LINE
8
0
10
13.175022
20
-137.299328
11
12.770200
21
-138.444950
0
LINE
8
0
10
12.770200
20
-138.444950
11
11.332130
21
-137.743572
0
LINE
8
0
10
11.332130
20
-137.743572
11
11.615509
21
-136.941633
0
LINE
8
0
10
11.615509
20
-136.941633
11
11.709968
21
-136.106982
0
LINE
8
0
10
11.709968
20
-136.106982
11
11.615509
21
-135.272331
0
LINE
8
0
10
11.615509
20
-135.272331
11
11.332130
21
-134.470392
0
LINE
8
0
10
11.332130
20
-134.470392
11
12.770200
21
-133.769000
0
LINE
8
0
10
6.724670
20
-138.462000
11
7.475824
21
-137.049310
0
LINE
8
0
10
7.475824
20
-137.049310
11
7.113638
21
-136.734460
0
LINE
8
0
10
7.113638
20
-136.734460
11
6.926133
21
-136.292701
0
LINE
8
0
10
6.926133
20
-136.292701
11
5.350443
21
-136.570549
0
LINE
8
0
10
5.350443
20
-136.570549
11
5.819221
21
-137.674907
0
LINE
8
0
10
5.819221
20
-137.674907
11
6.724673
21
-138.461999
0
LINE
8
0
10
6.724673
20
-138.461999
11
6.724670
21
-138.462000
0
LINE
8
0
10
10.373400
20
-134.938000
11
10.643283
21
-136.106990
0
LINE
8
0
10
10.643283
20
-136.106990
11
10.373400
21
-137.275980
0
LINE
8
0
10
10.373400
20
-137.275980
11
8.935330
21
-136.574602
0
LINE
8
0
10
8.935330
20
-136.574602
11
9.043284
21
-136.107002
0
LINE
8
0
10
9.043284
20
-136.107002
11
8.935330
21
-135.639403
0
LINE
8
0
10
8.935330
20
-135.639403
11
10.373400
21
-134.938000
0
LINE
8
0
10
2.724290
20
-135.181000
11
3.070162
21
-134.016221
0
LINE
8
0
10
3.070162
20
-134.016221
11
3.661841
21
-132.972269
0
LINE
8
0
10
3.661841
20
-132.972269
11
4.471859
21
-132.086950
0
LINE
8
0
10
4.471859
20
-132.086950
11
5.472750
21
-131.398070
0
LINE
8
0
10
5.472750
20
-131.398070
11
6.223904
21
-132.810790
0
LINE
8
0
10
6.223904
20
-132.810790
11
5.523280
21
-133.293008
0
LINE
8
0
10
5.523280
20
-133.293008
11
4.956267
21
-133.912733
0
LINE
8
0
10
4.956267
20
-133.912733
11
4.542092
21
-134.643502
0
LINE
8
0
10
4.542092
20
-134.643502
11
4.299984
21
-135.458850
0
LINE
8
0
10
4.299984
20
-135.458850
11
2.724290
21
-135.181000
0
LINE
8
0
10
5.472750
20
-140.816000
11
6.223904
21
-139.403280
0
LINE
8
0
10
6.223904
20
-139.403280
11
5.523280
21
-138.921062
0
LINE
8
0
10
5.523280
20
-138.921062
11
4.956267
21
-138.301337
0
LINE
8
0
10
4.956267
20
-138.301337
11
4.542092
21
-137.570568
0
LINE
8
0
10
4.542092
20
-137.570568
11
4.299984
21
-136.755220
0
LINE
8
0
10
4.299984
20
-136.755220
11
2.724294
21
-137.033068
0
LINE
8
0
10
2.724294
20
-137.033068
11
3.070166
21
-138.197847
0
LINE
8
0
10
3.070166
20
-138.197847
11
3.661845
21
-139.241799
0
LINE
8
0
10
3.661845
20
-139.241799
11
4.471863
21
-140.127118
0
LINE
8
0
10
4.471863
20
-140.127118
11
5.472754
21
-140.815998
0
LINE
8
0
10
5.472754
20
-140.815998
11
5.472750
21
-140.816000
0
LINE
8
0
10
7.085890
20
-142.445000
11
6.863213
21
-144.029420
0
LINE
8
0
10
6.863213
20
-144.029420
11
8.685188
21
-144.075913
0
LINE
8
0
10
8.685188
20
-144.075913
11
10.448731
21
-143.715736
0
LINE
8
0
10
10.448731
20
-143.715736
11
12.087178
21
-142.970548
0
LINE
8
0
10
12.087178
20
-142.970548
11
13.533863
21
-141.862010
0
LINE
8
0
10
13.533863
20
-141.862010
11
12.422413
21
-140.711050
0
LINE
8
0
10
12.422413
20
-140.711050
11
11.265066
21
-141.597884
0
LINE
8
0
10
11.265066
20
-141.597884
11
9.954309
21
-142.194037
0
LINE
8
0
10
9.954309
20
-142.194037
11
8.543474
21
-142.482182
0
LINE
8
0
10
8.543474
20
-142.482182
11
7.085893
21
-142.444990
0
LINE
8
0
10
7.085893
20
-142.444990
11
7.085890
21
-142.445000
0
LINE
8
0
10
13.728900
20
-138.913000
11
15.166970
21
-139.614406
0
LINE
8
0
10
15.166970
20
-139.614406
11
15.774205
21
-137.895971
0
LINE
8
0
10
15.774205
20
-137.895971
11
15.976617
21
-136.107441
0
LINE
8
0
10
15.976617
20
-136.107441
11
15.774205
21
-134.318911
0
LINE
8
0
10
15.774205
20
-134.318911
11
15.166970
21
-132.600476
0
LINE
8
0
10
15.166970
20
-132.600476
11
13.728900
21
-133.301868
0
LINE
8
0
10
13.728900
20
-133.301868
11
14.214686
21
-134.676612
0
LINE
8
0
10
14.214686
20
-134.676612
11
14.376614
21
-136.107433
0
LINE
8
0
10
14.376614
20
-136.107433
11
14.214686
21
-137.538254
0
LINE
8
0
10
14.214686
20
-137.538254
11
13.728900
21
-138.912998
0
LINE
8
0
10
13.728900
20
-138.912998
11
13.728900
21
-138.913000
0
LINE
8
0
10
11.681400
20
-139.944000
11
10.569950
21
-138.793040
0
LINE
8
0
10
10.569950
20
-138.793040
11
9.894830
21
-139.310358
0
LINE
8
0
10
9.894830
20
-139.310358
11
9.130222
21
-139.658113
0
LINE
8
0
10
9.130222
20
-139.658113
11
8.307235
21
-139.826196
0
LINE
8
0
10
8.307235
20
-139.826196
11
7.456980
21
-139.804500
0
LINE
8
0
10
7.456980
20
-139.804500
11
7.234303
21
-141.388950
0
LINE
8
0
10
7.234303
20
-141.388950
11
8.448954
21
-141.419943
0
LINE
8
0
10
8.448954
20
-141.419943
11
9.624650
21
-141.179822
0
LINE
8
0
10
9.624650
20
-141.179822
11
10.716947
21
-140.683028
0
LINE
8
0
10
10.716947
20
-140.683028
11
11.681403
21
-139.944000
0
LINE
8
0
10
11.681403
20
-139.944000
11
11.681400
21
-139.944000
0
LINE
8
0
10
5.350440
20
-135.644000
11
6.926130
21
-135.921819
0
LINE
8
0
10
6.926130
20
-135.921819
11
7.113641
21
-135.480076
0
LINE
8
0
10
7.113641
20
-135.480076
11
7.475821
21
-135.165238
0
LINE
8
0
10
7.475821
20
-135.165238
11
6.724667
21
-133.752528
0
LINE
8
0
10
6.724667
20
-133.752528
11
5.819211
21
-134.539629
0
LINE
8
0
10
5.819211
20
-134.539629
11
5.350437
21
-135.643998
0
LINE
8
0
10
5.350437
20
-135.643998
11
5.350440
21
-135.644000
0
LINE
8
0
10
7.605470
20
-133.466000
11
7.828147
21
-135.050430
0
LINE
8
0
10
7.828147
20
-135.050430
11
8.306217
21
-135.092258
0
LINE
8
0
10
8.306217
20
-135.092258
11
8.717567
21
-135.339425
0
LINE
8
0
10
8.717567
20
-135.339425
11
9.829017
21
-134.188475
0
LINE
8
0
10
9.829017
20
-134.188475
11
8.800641
21
-133.570562
0
LINE
8
0
10
8.800641
20
-133.570562
11
7.605467
21
-133.465998
0
LINE
8
0
10
7.605467
20
-133.465998
11
7.605470
21
-133.466000
0
LINE
8
0
10
-30.282300
20
-148.284000
11
-63.349000
21
-148.284000
0
LINE
8
0
10
-63.349000
20
-148.284000
11
-63.349000
21
-142.951000
0
LINE
8
0
10
-63.349000
20
-142.951000
11
-59.082300
21
-142.951000
0
LINE
8
0
10
-59.082300
20
-142.951000
11
-59.082300
21
-132.284000
0
LINE
8
0
10
-59.082300
20
-132.284000
11
-63.349000
21
-132.284000
0
LINE
8
0
10
-63.349000
20
-132.284000
11
-63.349000
21
-125.884000
0
LINE
8
0
10
-63.349000
20
-125.884000
11
-30.282300
21
-125.884000
0
LINE
8
0
10
-30.282300
20
-125.884000
11
-30.282300
21
-121.617000
0
LINE
8
0
10
-30.282300
20
-121.617000
11
-11.082300
21
-121.617000
0
LINE
8
0
10
-11.082300
20
-121.617000
11
-11.082300
21
-125.884000
0
LINE
8
0
10
-11.082300
20
-125.884000
11
24.117600
21
-125.884000
0
LINE
8
0
10
24.117600
20
-125.884000
11
24.117599
21
-132.284000
0
LINE
8
0
10
24.117599
20
-132.284000
11
19.851000
21
-132.284000
0
LINE
8
0
10
19.851000
20
-132.284000
11
19.851000
21
-142.951000
0
LINE
8
0
10
19.851000
20
-142.951000
11
24.117600
21
-142.951000
0
LINE
8
0
10
24.117600
20
-142.951000
11
24.117601
21
-148.284320
0
LINE
8
0
10
24.117601
20
-148.284320
11
-11.082300
21
-148.284000
0
LINE
8
0
10
-11.082300
20
-148.284000
11
-11.082300
21
-144.017000
0
LINE
8
0
10
-11.082300
20
-144.017000
11
-30.282300
21
-144.017000
0
LINE
8
0
10
-30.282300
20
-144.017000
11
-30.282300
21
-148.284000
0
LINE
8
0
10
-49.699800
20
-109.661000
11
-50.811250
21
-110.811940
0
LINE
8
0
10
-50.811250
20
-110.811940
11
-49.782873
21
-111.429851
0
LINE
8
0
10
-49.782873
20
-111.429851
11
-48.587700
21
-111.534414
0
LINE
8
0
10
-48.587700
20
-111.534414
11
-48.810376
21
-109.949984
0
LINE
8
0
10
-48.810376
20
-109.949984
11
-49.288445
21
-109.908158
0
LINE
8
0
10
-49.288445
20
-109.908158
11
-49.699796
21
-109.660994
0
LINE
8
0
10
-49.699796
20
-109.660994
11
-49.699800
21
-109.661000
0
LINE
8
0
10
-48.439200
20
-105.197000
11
-48.216524
21
-103.612570
0
LINE
8
0
10
-48.216524
20
-103.612570
11
-49.431175
21
-103.581577
0
LINE
8
0
10
-49.431175
20
-103.581577
11
-50.606871
21
-103.821698
0
LINE
8
0
10
-50.606871
20
-103.821698
11
-51.699168
21
-104.318492
0
LINE
8
0
10
-51.699168
20
-104.318492
11
-52.663624
21
-105.057520
0
LINE
8
0
10
-52.663624
20
-105.057520
11
-51.552174
21
-106.208460
0
LINE
8
0
10
-51.552174
20
-106.208460
11
-50.877054
21
-105.691142
0
LINE
8
0
10
-50.877054
20
-105.691142
11
-50.112446
21
-105.343387
0
LINE
8
0
10
-50.112446
20
-105.343387
11
-49.289459
21
-105.175304
0
LINE
8
0
10
-49.289459
20
-105.175304
11
-48.439204
21
-105.197000
0
LINE
8
0
10
-48.439204
20
-105.197000
11
-48.439200
21
-105.197000
0
LINE
8
0
10
-45.203000
20
-101.830000
11
-45.954154
21
-103.242720
0
LINE
8
0
10
-45.954154
20
-103.242720
11
-44.753086
21
-104.069375
0
LINE
8
0
10
-44.753086
20
-104.069375
11
-43.781064
21
-105.131756
0
LINE
8
0
10
-43.781064
20
-105.131756
11
-43.071050
21
-106.384497
0
LINE
8
0
10
-43.071050
20
-106.384497
11
-42.656004
21
-107.782230
0
LINE
8
0
10
-42.656004
20
-107.782230
11
-41.080314
21
-107.504394
0
LINE
8
0
10
-41.080314
20
-107.504394
11
-41.599122
21
-105.757226
0
LINE
8
0
10
-41.599122
20
-105.757226
11
-42.486640
21
-104.191300
0
LINE
8
0
10
-42.486640
20
-104.191300
11
-43.701668
21
-102.863323
0
LINE
8
0
10
-43.701668
20
-102.863323
11
-45.203004
21
-101.830004
0
LINE
8
0
10
-45.203004
20
-101.830004
11
-45.203000
21
-101.830000
0
LINE
8
0
10
-41.080400
20
-110.283000
11
-42.656090
21
-110.005164
0
LINE
8
0
10
-42.656090
20
-110.005164
11
-43.071136
21
-111.402897
0
LINE
8
0
10
-43.071136
20
-111.402897
11
-43.781150
21
-112.655638
0
LINE
8
0
10
-43.781150
20
-112.655638
11
-44.753172
21
-113.718019
0
LINE
8
0
10
-44.753172
20
-113.718019
11
-45.954240
21
-114.544674
0
LINE
8
0
10
-45.954240
20
-114.544674
11
-45.203086
21
-115.957384
0
LINE
8
0
10
-45.203086
20
-115.957384
11
-43.701750
21
-114.924065
0
LINE
8
0
10
-43.701750
20
-114.924065
11
-42.486722
21
-113.596088
0
LINE
8
0
10
-42.486722
20
-113.596088
11
-41.599204
21
-112.030162
0
LINE
8
0
10
-41.599204
20
-112.030162
11
-41.080396
21
-110.282994
0
LINE
8
0
10
-41.080396
20
-110.282994
11
-41.080400
21
-110.283000
0
LINE
8
0
10
-54.516100
20
-103.139000
11
-53.404650
21
-104.289940
0
LINE
8
0
10
-53.404650
20
-104.289940
11
-52.247303
21
-103.403106
0
LINE
8
0
10
-52.247303
20
-103.403106
11
-50.936546
21
-102.806953
0
LINE
8
0
10
-50.936546
20
-102.806953
11
-49.525711
21
-102.518808
0
LINE
8
0
10
-49.525711
20
-102.518808
11
-48.068130
21
-102.556000
0
LINE
8
0
10
-48.068130
20
-102.556000
11
-47.845454
21
-100.971570
0
LINE
8
0
10
-47.845454
20
-100.971570
11
-49.667427
21
-100.925081
0
LINE
8
0
10
-49.667427
20
-100.925081
11
-51.430968
21
-101.285261
0
LINE
8
0
10
-51.430968
20
-101.285261
11
-53.069412
21
-102.030451
0
LINE
8
0
10
-53.069412
20
-102.030451
11
-54.516094
21
-103.138990
0
LINE
8
0
10
-54.516094
20
-103.138990
11
-54.516100
21
-103.139000
0
LINE
8
0
10
-53.752400
20
-111.232000
11
-54.157224
21
-110.086375
0
LINE
8
0
10
-54.157224
20
-110.086375
11
-54.292166
21
-108.894020
0
LINE
8
0
10
-54.292166
20
-108.894020
11
-54.157224
21
-107.701665
0
LINE
8
0
10
-54.157224
20
-107.701665
11
-53.752400
21
-106.556040
0
LINE
8
0
10
-53.752400
20
-106.556040
11
-52.314330
21
-107.257432
0
LINE
8
0
10
-52.314330
20
-107.257432
11
-52.597707
21
-108.059369
0
LINE
8
0
10
-52.597707
20
-108.059369
11
-52.692166
21
-108.894017
0
LINE
8
0
10
-52.692166
20
-108.894017
11
-52.597707
21
-109.728665
0
LINE
8
0
10
-52.597707
20
-109.728665
11
-52.314330
21
-110.530602
0
LINE
8
0
10
-52.314330
20
-110.530602
11
-53.752400
21
-111.232000
0
LINE
8
0
10
-48.458000
20
-109.836000
11
-47.706846
21
-111.248720
0
LINE
8
0
10
-47.706846
20
-111.248720
11
-46.801392
21
-110.461623
0
LINE
8
0
10
-46.801392
20
-110.461623
11
-46.332616
21
-109.357260
0
LINE
8
0
10
-46.332616
20
-109.357260
11
-47.908306
21
-109.079424
0
LINE
8
0
10
-47.908306
20
-109.079424
11
-48.095817
21
-109.521169
0
LINE
8
0
10
-48.095817
20
-109.521169
11
-48.457998
21
-109.836008
0
LINE
8
0
10
-48.457998
20
-109.836008
11
-48.458000
21
-109.836000
0
LINE
8
0
10
-51.355600
20
-110.063000
11
-51.625483
21
-108.894010
0
LINE
8
0
10
-51.625483
20
-108.894010
11
-51.355600
21
-107.725020
0
LINE
8
0
10
-51.355600
20
-107.725020
11
-49.917530
21
-108.426412
0
LINE
8
0
10
-49.917530
20
-108.426412
11
-50.025482
21
-108.894007
0
LINE
8
0
10
-50.025482
20
-108.894007
11
-49.917530
21
-109.361603
0
LINE
8
0
10
-49.917530
20
-109.361603
11
-51.355600
21
-110.063000
0
LINE
8
0
10
-46.455000
20
-104.185000
11
-45.454109
21
-104.873880
0
LINE
8
0
10
-45.454109
20
-104.873880
11
-44.644091
21
-105.759199
0
LINE
8
0
10
-44.644091
20
-105.759199
11
-44.052412
21
-106.803151
0
LINE
8
0
10
-44.052412
20
-106.803151
11
-43.706540
21
-107.967930
0
LINE
8
0
10
-43.706540
20
-107.967930
11
-45.282230
21
-108.245766
0
LINE
8
0
10
-45.282230
20
-108.245766
11
-45.524340
21
-107.430421
0
LINE
8
0
10
-45.524340
20
-107.430421
11
-45.938515
21
-106.699655
0
LINE
8
0
10
-45.938515
20
-106.699655
11
-46.505527
21
-106.079932
0
LINE
8
0
10
-46.505527
20
-106.079932
11
-47.206150
21
-105.597716
0
LINE
8
0
10
-47.206150
20
-105.597716
11
-46.455000
21
-104.185000
0
LINE
8
0
10
-47.206100
20
-112.190000
11
-46.454946
21
-113.602720
0
LINE
8
0
10
-46.454946
20
-113.602720
11
-45.454055
21
-112.913840
0
LINE
8
0
10
-45.454055
20
-112.913840
11
-44.644037
21
-112.028521
0
LINE
8
0
10
-44.644037
20
-112.028521
11
-44.052358
21
-110.984569
0
LINE
8
0
10
-44.052358
20
-110.984569
11
-43.706486
21
-109.819790
0
LINE
8
0
10
-43.706486
20
-109.819790
11
-45.282176
21
-109.541954
0
LINE
8
0
10
-45.282176
20
-109.541954
11
-45.524286
21
-110.357299
0
LINE
8
0
10
-45.524286
20
-110.357299
11
-45.938461
21
-111.088065
0
LINE
8
0
10
-45.938461
20
-111.088065
11
-46.505473
21
-111.707788
0
LINE
8
0
10
-46.505473
20
-111.707788
11
-47.206096
21
-112.190004
0
LINE
8
0
10
-47.206096
20
-112.190004
11
-47.206100
21
-112.190000
0
LINE
8
0
10
-47.845400
20
-116.816000
11
-48.068076
21
-115.231570
0
LINE
8
0
10
-48.068076
20
-115.231570
11
-49.525657
21
-115.268762
0
LINE
8
0
10
-49.525657
20
-115.268762
11
-50.936492
21
-114.980617
0
LINE
8
0
10
-50.936492
20
-114.980617
11
-52.247249
21
-114.384464
0
LINE
8
0
10
-52.247249
20
-114.384464
11
-53.404596
21
-113.497630
0
LINE
8
0
10
-53.404596
20
-113.497630
11
-54.516046
21
-114.648570
0
LINE
8
0
10
-54.516046
20
-114.648570
11
-53.069365
21
-115.757111
0
LINE
8
0
10
-53.069365
20
-115.757111
11
-51.430921
21
-116.502304
0
LINE
8
0
10
-51.430921
20
-116.502304
11
-49.667380
21
-116.862487
0
LINE
8
0
10
-49.667380
20
-116.862487
11
-47.845406
21
-116.816000
0
LINE
8
0
10
-47.845406
20
-116.816000
11
-47.845400
21
-116.816000
0
LINE
8
0
10
-56.149200
20
-112.401000
11
-54.711130
21
-111.699605
0
LINE
8
0
10
-54.711130
20
-111.699605
11
-55.196919
21
-110.324856
0
LINE
8
0
10
-55.196919
20
-110.324856
11
-55.358849
21
-108.894030
0
LINE
8
0
10
-55.358849
20
-108.894030
11
-55.196919
21
-107.463204
0
LINE
8
0
10
-55.196919
20
-107.463204
11
-54.711130
21
-106.088455
0
LINE
8
0
10
-54.711130
20
-106.088455
11
-56.149200
21
-105.387063
0
LINE
8
0
10
-56.149200
20
-105.387063
11
-56.756435
21
-107.105498
0
LINE
8
0
10
-56.756435
20
-107.105498
11
-56.958847
21
-108.894028
0
LINE
8
0
10
-56.958847
20
-108.894028
11
-56.756435
21
-110.682558
0
LINE
8
0
10
-56.756435
20
-110.682558
11
-56.149200
21
-112.400993
0
LINE
8
0
10
-56.149200
20
-112.400993
11
-56.149200
21
-112.401000
0
LINE
8
0
10
-51.552200
20
-111.579000
11
-52.663650
21
-112.729940
0
LINE
8
0
10
-52.663650
20
-112.729940
11
-51.699194
21
-113.468968
0
LINE
8
0
10
-51.699194
20
-113.468968
11
-50.606897
21
-113.965762
0
LINE
8
0
10
-50.606897
20
-113.965762
11
-49.431201
21
-114.205883
0
LINE
8
0
10
-49.431201
20
-114.205883
11
-48.216550
21
-114.174890
0
LINE
8
0
10
-48.216550
20
-114.174890
11
-48.439226
21
-112.590460
0
LINE
8
0
10
-48.439226
20
-112.590460
11
-49.289482
21
-112.612154
0
LINE
8
0
10
-49.289482
20
-112.612154
11
-50.112469
21
-112.444068
0
LINE
8
0
10
-50.112469
20
-112.444068
11
-50.877077
21
-112.096311
0
LINE
8
0
10
-50.877077
20
-112.096311
11
-51.552196
21
-111.578990
0
LINE
8
0
10
-51.552196
20
-111.578990
11
-51.552200
21
-111.579000
0
LINE
8
0
10
-47.908300
20
-108.709000
11
-46.332610
21
-108.431164
0
LINE
8
0
10
-46.332610
20
-108.431164
11
-46.801386
21
-107.326801
0
LINE
8
0
10
-46.801386
20
-107.326801
11
-47.706840
21
-106.539704
0
LINE
8
0
10
-47.706840
20
-106.539704
11
-48.457994
21
-107.952414
0
LINE
8
0
10
-48.457994
20
-107.952414
11
-48.095812
21
-108.267254
0
LINE
8
0
10
-48.095812
20
-108.267254
11
-47.908302
21
-108.709000
0
LINE
8
0
10
-47.908302
20
-108.709000
11
-47.908300
21
-108.709000
0
LINE
8
0
10
-48.810400
20
-107.837000
11
-48.587724
21
-106.252570
0
LINE
8
0
10
-48.587724
20
-106.252570
11
-49.782898
21
-106.357134
0
LINE
8
0
10
-49.782898
20
-106.357134
11
-50.811274
21
-106.975047
0
LINE
8
0
10
-50.811274
20
-106.975047
11
-49.699824
21
-108.125987
0
LINE
8
0
10
-49.699824
20
-108.125987
11
-49.288473
21
-107.878823
0
LINE
8
0
10
-49.288473
20
-107.878823
11
-48.810404
21
-107.836997
0
LINE
8
0
10
-48.810404
20
-107.836997
11
-48.810400
21
-107.837000
0
LINE
8
0
10
18.100100
20
-105.071000
11
18.100100
21
-115.737000
0
LINE
8
0
10
18.100100
20
-115.737000
11
22.366800
21
-115.737000
0
LINE
8
0
10
22.366800
20
-115.737000
11
22.366800
21
-121.071000
0
LINE
8
0
10
22.366800
20
-121.071000
11
-10.699900
21
-121.071000
0
LINE
8
0
10
-10.699900
20
-121.071000
11
-10.699900
21
-116.804000
0
LINE
8
0
10
-10.699900
20
-116.804000
11
-29.899900
21
-116.804000
0
LINE
8
0
10
-29.899900
20
-116.804000
11
-29.899900
21
-121.071000
0
LINE
8
0
10
-29.899900
20
-121.071000
11
-65.099800
21
-121.071000
0
LINE
8
0
10
-65.099800
20
-121.071000
11
-65.099800
21
-115.737000
0
LINE
8
0
10
-65.099800
20
-115.737000
11
-60.833200
21
-115.737000
0
LINE
8
0
10
-60.833200
20
-115.737000
11
-60.833200
21
-105.071000
0
LINE
8
0
10
-60.833200
20
-105.071000
11
-65.099800
21
-105.071000
0
LINE
8
0
10
-65.099800
20
-105.071000
11
-65.099800
21
-98.670600
0
LINE
8
0
10
-65.099800
20
-98.670600
11
-29.899900
21
-98.670600
0
LINE
8
0
10
-29.899900
20
-98.670600
11
-29.899900
21
-94.404000
0
LINE
8
0
10
-29.899900
20
-94.404000
11
-10.699900
21
-94.404000
0
LINE
8
0
10
-10.699900
20
-94.404000
11
-10.699900
21
-98.670600
0
LINE
8
0
10
-10.699900
20
-98.670600
11
22.366800
21
-98.670600
0
LINE
8
0
10
22.366800
20
-98.670600
11
22.366800
21
-105.071000
0
LINE
8
0
10
22.366800
20
-105.071000
11
18.100100
21
-105.071000
0
LINE
8
0
10
10.199500
20
-86.057800
11
10.199500
21
-79.657800
0
LINE
8
0
10
10.199500
20
-79.657800
11
9.132870
21
-79.657800
0
LINE
8
0
10
9.132870
20
-79.657800
11
9.132870
21
-86.057800
0
LINE
8
0
10
9.132870
20
-86.057800
11
10.199500
21
-86.057800
0
LINE
8
0
10
-3.667120
20
-72.191100
11
-3.667120
21
-78.591100
0
LINE
8
0
10
-3.667120
20
-78.591100
11
-2.600460
21
-78.591100
0
LINE
8
0
10
-2.600460
20
-78.591100
11
-2.600460
21
-72.191100
0
LINE
8
0
10
-2.600460
20
-72.191100
11
-3.667120
21
-72.191100
0
LINE
8
0
10
6.999530
20
-86.057800
11
8.066200
21
-86.057800
0
LINE
8
0
10
8.066200
20
-86.057800
11
8.066200
21
-83.924400
0
LINE
8
0
10
8.066200
20
-83.924400
11
6.999530
21
-83.924400
0
LINE
8
0
10
6.999530
20
-83.924400
11
6.999530
21
-86.057800
0
LINE
8
0
10
-0.467126
20
-76.457800
11
-1.533790
21
-76.457800
0
LINE
8
0
10
-1.533790
20
-76.457800
11
-1.533790
21
-82.857800
0
LINE
8
0
10
-1.533790
20
-82.857800
11
-0.467126
21
-82.857800
0
LINE
8
0
10
-0.467126
20
-82.857800
11
-0.467126
21
-76.457800
0
LINE
8
0
10
12.332900
20
-83.924400
11
11.266200
21
-83.924400
0
LINE
8
0
10
11.266200
20
-83.924400
11
11.266200
21
-86.057800
0
LINE
8
0
10
11.266200
20
-86.057800
11
12.332900
21
-86.057800
0
LINE
8
0
10
12.332900
20
-86.057800
11
12.332900
21
-83.924400
0
LINE
8
0
10
-0.467126
20
-68.991100
11
-1.533790
21
-68.991100
0
LINE
8
0
10
-1.533790
20
-68.991100
11
-1.533790
21
-75.391100
0
LINE
8
0
10
-1.533790
20
-75.391100
11
-0.467126
21
-75.391100
0
LINE
8
0
10
-0.467126
20
-75.391100
11
-0.467126
21
-68.991100
0
LINE
8
0
10
-3.667120
20
-79.657800
11
-3.667120
21
-86.057800
0
LINE
8
0
10
-3.667120
20
-86.057800
11
-2.600460
21
-86.057800
0
LINE
8
0
10
-2.600460
20
-86.057800
11
-2.600460
21
-79.657800
0
LINE
8
0
10
-2.600460
20
-79.657800
11
-3.667120
21
-79.657800
0
LINE
8
0
10
6.999530
20
-60.457800
11
8.066200
21
-60.457800
0
LINE
8
0
10
8.066200
20
-60.457800
11
8.066200
21
-54.057800
0
LINE
8
0
10
8.066200
20
-54.057800
11
6.999530
21
-54.057800
0
LINE
8
0
10
6.999530
20
-54.057800
11
6.999530
21
-60.457800
0
LINE
8
0
10
11.266200
20
-54.057800
11
11.266200
21
-60.457800
0
LINE
8
0
10
11.266200
20
-60.457800
11
12.332900
21
-60.457800
0
LINE
8
0
10
12.332900
20
-60.457800
11
12.332900
21
-54.057800
0
LINE
8
0
10
12.332900
20
-54.057800
11
11.266200
21
-54.057800
0
LINE
8
0
10
-6.867120
20
-63.657800
11
-6.867120
21
-57.257800
0
LINE
8
0
10
-6.867120
20
-57.257800
11
-7.933790
21
-57.257800
0
LINE
8
0
10
-7.933790
20
-57.257800
11
-7.933790
21
-63.657800
0
LINE
8
0
10
-7.933790
20
-63.657800
11
-6.867120
21
-63.657800
0
LINE
8
0
10
-3.667120
20
-55.657800
11
-2.600460
21
-55.657800
0
LINE
8
0
10
-2.600460
20
-55.657800
11
-2.600460
21
-54.057800
0
LINE
8
0
10
-2.600460
20
-54.057800
11
-3.667120
21
-54.057800
0
LINE
8
0
10
-3.667120
20
-54.057800
11
-3.667120
21
-55.657800
0
LINE
8
0
10
-12.200500
20
-55.657800
11
-11.133800
21
-55.657800
0
LINE
8
0
10
-11.133800
20
-55.657800
11
-11.133800
21
-54.057800
0
LINE
8
0
10
-11.133800
20
-54.057800
11
-12.200500
21
-54.057800
0
LINE
8
0
10
-12.200500
20
-54.057800
11
-12.200500
21
-55.657800
0
LINE
8
0
10
-7.933790
20
-55.657800
11
-6.867120
21
-55.657800
0
LINE
8
0
10
-6.867120
20
-55.657800
11
-6.867120
21
-54.057800
0
LINE
8
0
10
-6.867120
20
-54.057800
11
-7.933790
21
-54.057800
0
LINE
8
0
10
-7.933790
20
-54.057800
11
-7.933790
21
-55.657800
0
LINE
8
0
10
-10.067100
20
-60.457800
11
-9.000450
21
-60.457800
0
LINE
8
0
10
-9.000450
20
-60.457800
11
-9.000450
21
-54.057800
0
LINE
8
0
10
-9.000450
20
-54.057800
11
-10.067100
21
-54.057800
0
LINE
8
0
10
-10.067100
20
-54.057800
11
-10.067100
21
-60.457800
0
LINE
8
0
10
1.666210
20
-63.657800
11
1.666210
21
-57.257800
0
LINE
8
0
10
1.666210
20
-57.257800
11
0.599540
21
-57.257800
0
LINE
8
0
10
0.599540
20
-57.257800
11
0.599540
21
-63.657800
0
LINE
8
0
10
0.599540
20
-63.657800
11
1.666210
21
-63.657800
0
LINE
8
0
10
3.799540
20
-67.924400
11
3.799540
21
-61.524400
0
LINE
8
0
10
3.799540
20
-61.524400
11
2.732870
21
-61.524400
0
LINE
8
0
10
2.732870
20
-61.524400
11
2.732870
21
-67.924400
0
LINE
8
0
10
2.732870
20
-67.924400
11
3.799540
21
-67.924400
0
LINE
8
0
10
-2.600460
20
-63.657800
11
-2.600460
21
-57.257800
0
LINE
8
0
10
-2.600460
20
-57.257800
11
-3.667120
21
-57.257800
0
LINE
8
0
10
-3.667120
20
-57.257800
11
-3.667120
21
-63.657800
0
LINE
8
0
10
-3.667120
20
-63.657800
11
-2.600460
21
-63.657800
0
LINE
8
0
10
4.866200
20
-64.724400
11
4.866200
21
-71.124400
0
LINE
8
0
10
4.866200
20
-71.124400
11
5.932870
21
-71.124400
0
LINE
8
0
10
5.932870
20
-71.124400
11
5.932870
21
-64.724400
0
LINE
8
0
10
5.932870
20
-64.724400
11
4.866200
21
-64.724400
0
LINE
8
0
10
6.999530
20
-67.924400
11
8.066200
21
-67.924400
0
LINE
8
0
10
8.066200
20
-67.924400
11
8.066200
21
-61.524400
0
LINE
8
0
10
8.066200
20
-61.524400
11
6.999530
21
-61.524400
0
LINE
8
0
10
6.999530
20
-61.524400
11
6.999530
21
-67.924400
0
LINE
8
0
10
12.332900
20
-67.924400
11
12.332900
21
-61.524400
0
LINE
8
0
10
12.332900
20
-61.524400
11
11.266200
21
-61.524400
0
LINE
8
0
10
11.266200
20
-61.524400
11
11.266200
21
-67.924400
0
LINE
8
0
10
11.266200
20
-67.924400
11
12.332900
21
-67.924400
0
LINE
8
0
10
0.599540
20
-78.591100
11
1.666210
21
-78.591100
0
LINE
8
0
10
1.666210
20
-78.591100
11
1.666210
21
-72.191100
0
LINE
8
0
10
1.666210
20
-72.191100
11
0.599540
21
-72.191100
0
LINE
8
0
10
0.599540
20
-72.191100
11
0.599540
21
-78.591100
0
LINE
8
0
10
10.199500
20
-71.124400
11
10.199500
21
-64.724400
0
LINE
8
0
10
10.199500
20
-64.724400
11
9.132870
21
-64.724400
0
LINE
8
0
10
9.132870
20
-64.724400
11
9.132870
21
-71.124400
0
LINE
8
0
10
9.132870
20
-71.124400
11
10.199500
21
-71.124400
0
LINE
8
0
10
4.866200
20
-72.191100
11
4.866200
21
-78.591100
0
LINE
8
0
10
4.866200
20
-78.591100
11
5.932870
21
-78.591100
0
LINE
8
0
10
5.932870
20
-78.591100
11
5.932870
21
-72.191100
0
LINE
8
0
10
5.932870
20
-72.191100
11
4.866200
21
-72.191100
0
LINE
8
0
10
12.332900
20
-82.857800
11
12.332900
21
-76.457800
0
LINE
8
0
10
12.332900
20
-76.457800
11
11.266200
21
-76.457800
0
LINE
8
0
10
11.266200
20
-76.457800
11
11.266200
21
-82.857800
0
LINE
8
0
10
11.266200
20
-82.857800
11
12.332900
21
-82.857800
0
LINE
8
0
10
-4.733790
20
-75.391100
11
-4.733790
21
-68.991100
0
LINE
8
0
10
-4.733790
20
-68.991100
11
-5.800460
21
-68.991100
0
LINE
8
0
10
-5.800460
20
-68.991100
11
-5.800460
21
-75.391100
0
LINE
8
0
10
-5.800460
20
-75.391100
11
-4.733790
21
-75.391100
0
LINE
8
0
10
-11.133800
20
-79.657800
11
-12.200500
21
-79.657800
0
LINE
8
0
10
-12.200500
20
-79.657800
11
-12.200500
21
-86.057800
0
LINE
8
0
10
-12.200500
20
-86.057800
11
-11.133800
21
-86.057800
0
LINE
8
0
10
-11.133800
20
-86.057800
11
-11.133800
21
-79.657800
0
LINE
8
0
10
4.866200
20
-79.657800
11
4.866200
21
-86.057800
0
LINE
8
0
10
4.866200
20
-86.057800
11
5.932870
21
-86.057800
0
LINE
8
0
10
5.932870
20
-86.057800
11
5.932870
21
-79.657800
0
LINE
8
0
10
5.932870
20
-79.657800
11
4.866200
21
-79.657800
0
LINE
8
0
10
-4.733790
20
-82.857800
11
-4.733790
21
-76.457800
0
LINE
8
0
10
-4.733790
20
-76.457800
11
-5.800460
21
-76.457800
0
LINE
8
0
10
-5.800460
20
-76.457800
11
-5.800460
21
-82.857800
0
LINE
8
0
10
-5.800460
20
-82.857800
11
-4.733790
21
-82.857800
0
LINE
8
0
10
-7.933790
20
-79.657800
11
-7.933790
21
-86.057800
0
LINE
8
0
10
-7.933790
20
-86.057800
11
-6.867120
21
-86.057800
0
LINE
8
0
10
-6.867120
20
-86.057800
11
-6.867120
21
-79.657800
0
LINE
8
0
10
-6.867120
20
-79.657800
11
-7.933790
21
-79.657800
0
LINE
8
0
10
-10.067100
20
-76.457800
11
-10.067100
21
-82.857800
0
LINE
8
0
10
-10.067100
20
-82.857800
11
-9.000450
21
-82.857800
0
LINE
8
0
10
-9.000450
20
-82.857800
11
-9.000450
21
-76.457800
0
LINE
8
0
10
-9.000450
20
-76.457800
11
-10.067100
21
-76.457800
0
LINE
8
0
10
3.799540
20
-82.857800
11
3.799540
21
-76.457800
0
LINE
8
0
10
3.799540
20
-76.457800
11
2.732870
21
-76.457800
0
LINE
8
0
10
2.732870
20
-76.457800
11
2.732870
21
-82.857800
0
LINE
8
0
10
2.732870
20
-82.857800
11
3.799540
21
-82.857800
0
LINE
8
0
10
6.999530
20
-75.391100
11
8.066200
21
-75.391100
0
LINE
8
0
10
8.066200
20
-75.391100
11
8.066200
21
-68.991100
0
LINE
8
0
10
8.066200
20
-68.991100
11
6.999530
21
-68.991100
0
LINE
8
0
10
6.999530
20
-68.991100
11
6.999530
21
-75.391100
0
LINE
8
0
10
6.999530
20
-82.857800
11
8.066200
21
-82.857800
0
LINE
8
0
10
8.066200
20
-82.857800
11
8.066200
21
-76.457800
0
LINE
8
0
10
8.066200
20
-76.457800
11
6.999530
21
-76.457800
0
LINE
8
0
10
6.999530
20
-76.457800
11
6.999530
21
-82.857800
0
LINE
8
0
10
3.799540
20
-75.391100
11
3.799540
21
-68.991100
0
LINE
8
0
10
3.799540
20
-68.991100
11
2.732870
21
-68.991100
0
LINE
8
0
10
2.732870
20
-68.991100
11
2.732870
21
-75.391100
0
LINE
8
0
10
2.732870
20
-75.391100
11
3.799540
21
-75.391100
0
LINE
8
0
10
0.599540
20
-86.057800
11
1.666210
21
-86.057800
0
LINE
8
0
10
1.666210
20
-86.057800
11
1.666210
21
-79.657800
0
LINE
8
0
10
1.666210
20
-79.657800
11
0.599540
21
-79.657800
0
LINE
8
0
10
0.599540
20
-79.657800
11
0.599540
21
-86.057800
0
LINE
8
0
10
-7.933790
20
-72.191100
11
-7.933790
21
-78.591100
0
LINE
8
0
10
-7.933790
20
-78.591100
11
-6.867120
21
-78.591100
0
LINE
8
0
10
-6.867120
20
-78.591100
11
-6.867120
21
-72.191100
0
LINE
8
0
10
-6.867120
20
-72.191100
11
-7.933790
21
-72.191100
0
LINE
8
0
10
0.599540
20
-71.124400
11
1.666210
21
-71.124400
0
LINE
8
0
10
1.666210
20
-71.124400
11
1.666210
21
-64.724400
0
LINE
8
0
10
1.666210
20
-64.724400
11
0.599540
21
-64.724400
0
LINE
8
0
10
0.599540
20
-64.724400
11
0.599540
21
-71.124400
0
LINE
8
0
10
9.132870
20
-55.657800
11
10.199500
21
-55.657800
0
LINE
8
0
10
10.199500
20
-55.657800
11
10.199500
21
-54.057800
0
LINE
8
0
10
10.199500
20
-54.057800
11
9.132870
21
-54.057800
0
LINE
8
0
10
9.132870
20
-54.057800
11
9.132870
21
-55.657800
0
LINE
8
0
10
-11.133800
20
-64.724400
11
-12.200500
21
-64.724400
0
LINE
8
0
10
-12.200500
20
-64.724400
11
-12.200500
21
-71.124400
0
LINE
8
0
10
-12.200500
20
-71.124400
11
-11.133800
21
-71.124400
0
LINE
8
0
10
-11.133800
20
-71.124400
11
-11.133800
21
-64.724400
0
LINE
8
0
10
0.599540
20
-55.657800
11
1.666210
21
-55.657800
0
LINE
8
0
10
1.666210
20
-55.657800
11
1.666210
21
-54.057800
0
LINE
8
0
10
1.666210
20
-54.057800
11
0.599540
21
-54.057800
0
LINE
8
0
10
0.599540
20
-54.057800
11
0.599540
21
-55.657800
0
LINE
8
0
10
2.732870
20
-60.457800
11
3.799540
21
-60.457800
0
LINE
8
0
10
3.799540
20
-60.457800
11
3.799540
21
-54.057800
0
LINE
8
0
10
3.799540
20
-54.057800
11
2.732870
21
-54.057800
0
LINE
8
0
10
2.732870
20
-54.057800
11
2.732870
21
-60.457800
0
LINE
8
0
10
5.932870
20
-63.657800
11
5.932870
21
-57.257800
0
LINE
8
0
10
5.932870
20
-57.257800
11
4.866200
21
-57.257800
0
LINE
8
0
10
4.866200
20
-57.257800
11
4.866200
21
-63.657800
0
LINE
8
0
10
4.866200
20
-63.657800
11
5.932870
21
-63.657800
0
LINE
8
0
10
-11.133800
20
-63.657800
11
-11.133800
21
-57.257800
0
LINE
8
0
10
-11.133800
20
-57.257800
11
-12.200500
21
-57.257800
0
LINE
8
0
10
-12.200500
20
-57.257800
11
-12.200500
21
-63.657800
0
LINE
8
0
10
-12.200500
20
-63.657800
11
-11.133800
21
-63.657800
0
LINE
8
0
10
9.132870
20
-57.257800
11
9.132870
21
-63.657800
0
LINE
8
0
10
9.132870
20
-63.657800
11
10.199500
21
-63.657800
0
LINE
8
0
10
10.199500
20
-63.657800
11
10.199500
21
-57.257800
0
LINE
8
0
10
10.199500
20
-57.257800
11
9.132870
21
-57.257800
0
LINE
8
0
10
-5.800460
20
-60.457800
11
-4.733790
21
-60.457800
0
LINE
8
0
10
-4.733790
20
-60.457800
11
-4.733790
21
-54.057800
0
LINE
8
0
10
-4.733790
20
-54.057800
11
-5.800460
21
-54.057800
0
LINE
8
0
10
-5.800460
20
-54.057800
11
-5.800460
21
-60.457800
0
LINE
8
0
10
4.866200
20
-55.657800
11
5.932870
21
-55.657800
0
LINE
8
0
10
5.932870
20
-55.657800
11
5.932870
21
-54.057800
0
LINE
8
0
10
5.932870
20
-54.057800
11
4.866200
21
-54.057800
0
LINE
8
0
10
4.866200
20
-54.057800
11
4.866200
21
-55.657800
0
LINE
8
0
10
-10.067100
20
-68.991100
11
-10.067100
21
-75.391100
0
LINE
8
0
10
-10.067100
20
-75.391100
11
-9.000450
21
-75.391100
0
LINE
8
0
10
-9.000450
20
-75.391100
11
-9.000450
21
-68.991100
0
LINE
8
0
10
-9.000450
20
-68.991100
11
-10.067100
21
-68.991100
0
LINE
8
0
10
-1.533790
20
-60.457800
11
-0.467126
21
-60.457800
0
LINE
8
0
10
-0.467126
20
-60.457800
11
-0.467126
21
-54.057800
0
LINE
8
0
10
-0.467126
20
-54.057800
11
-1.533790
21
-54.057800
0
LINE
8
0
10
-1.533790
20
-54.057800
11
-1.533790
21
-60.457800
0
LINE
8
0
10
-11.133800
20
-72.191100
11
-12.200500
21
-72.191100
0
LINE
8
0
10
-12.200500
20
-72.191100
11
-12.200500
21
-78.591100
0
LINE
8
0
10
-12.200500
20
-78.591100
11
-11.133800
21
-78.591100
0
LINE
8
0
10
-11.133800
20
-78.591100
11
-11.133800
21
-72.191100
0
LINE
8
0
10
-4.733790
20
-67.924400
11
-4.733790
21
-61.524400
0
LINE
8
0
10
-4.733790
20
-61.524400
11
-5.800460
21
-61.524400
0
LINE
8
0
10
-5.800460
20
-61.524400
11
-5.800460
21
-67.924400
0
LINE
8
0
10
-5.800460
20
-67.924400
11
-4.733790
21
-67.924400
0
LINE
8
0
10
-0.467126
20
-61.524400
11
-1.533790
21
-61.524400
0
LINE
8
0
10
-1.533790
20
-61.524400
11
-1.533790
21
-67.924400
0
LINE
8
0
10
-1.533790
20
-67.924400
11
-0.467126
21
-67.924400
0
LINE
8
0
10
-0.467126
20
-67.924400
11
-0.467126
21
-61.524400
0
LINE
8
0
10
-10.067100
20
-61.524400
11
-10.067100
21
-67.924400
0
LINE
8
0
10
-10.067100
20
-67.924400
11
-9.000450
21
-67.924400
0
LINE
8
0
10
-9.000450
20
-67.924400
11
-9.000450
21
-61.524400
0
LINE
8
0
10
-9.000450
20
-61.524400
11
-10.067100
21
-61.524400
0
LINE
8
0
10
12.332900
20
-75.391100
11
12.332900
21
-68.991100
0
LINE
8
0
10
12.332900
20
-68.991100
11
11.266200
21
-68.991100
0
LINE
8
0
10
11.266200
20
-68.991100
11
11.266200
21
-75.391100
0
LINE
8
0
10
11.266200
20
-75.391100
11
12.332900
21
-75.391100
0
LINE
8
0
10
-7.933790
20
-64.724400
11
-7.933790
21
-71.124400
0
LINE
8
0
10
-7.933790
20
-71.124400
11
-6.867120
21
-71.124400
0
LINE
8
0
10
-6.867120
20
-71.124400
11
-6.867120
21
-64.724400
0
LINE
8
0
10
-6.867120
20
-64.724400
11
-7.933790
21
-64.724400
0
LINE
8
0
10
-3.667120
20
-64.724400
11
-3.667120
21
-71.124400
0
LINE
8
0
10
-3.667120
20
-71.124400
11
-2.600460
21
-71.124400
0
LINE
8
0
10
-2.600460
20
-71.124400
11
-2.600460
21
-64.724400
0
LINE
8
0
10
-2.600460
20
-64.724400
11
-3.667120
21
-64.724400
0
LINE
8
0
10
-5.800460
20
-86.057800
11
-4.733790
21
-86.057800
0
LINE
8
0
10
-4.733790
20
-86.057800
11
-4.733790
21
-83.924400
0
LINE
8
0
10
-4.733790
20
-83.924400
11
-5.800460
21
-83.924400
0
LINE
8
0
10
-5.800460
20
-83.924400
11
-5.800460
21
-86.057800
0
LINE
8
0
10
-10.067100
20
-86.057800
11
-9.000450
21
-86.057800
0
LINE
8
0
10
-9.000450
20
-86.057800
11
-9.000450
21
-83.924400
0
LINE
8
0
10
-9.000450
20
-83.924400
11
-10.067100
21
-83.924400
0
LINE
8
0
10
-10.067100
20
-83.924400
11
-10.067100
21
-86.057800
0
LINE
8
0
10
2.732870
20
-86.057800
11
3.799540
21
-86.057800
0
LINE
8
0
10
3.799540
20
-86.057800
11
3.799540
21
-83.924400
0
LINE
8
0
10
3.799540
20
-83.924400
11
2.732870
21
-83.924400
0
LINE
8
0
10
2.732870
20
-83.924400
11
2.732870
21
-86.057800
0
LINE
8
0
10
10.199500
20
-78.591100
11
10.199500
21
-72.191100
0
LINE
8
0
10
10.199500
20
-72.191100
11
9.132870
21
-72.191100
0
LINE
8
0
10
9.132870
20
-72.191100
11
9.132870
21
-78.591100
0
LINE
8
0
10
9.132870
20
-78.591100
11
10.199500
21
-78.591100
0
LINE
8
0
10
-1.533790
20
-86.057800
11
-0.467126
21
-86.057800
0
LINE
8
0
10
-0.467126
20
-86.057800
11
-0.467126
21
-83.924400
0
LINE
8
0
10
-0.467126
20
-83.924400
11
-1.533790
21
-83.924400
0
LINE
8
0
10
-1.533790
20
-83.924400
11
-1.533790
21
-86.057800
0
LINE
8
0
10
18.199500
20
-75.924400
11
13.932900
21
-75.924400
0
LINE
8
0
10
13.932900
20
-75.924400
11
13.932900
21
-88.724400
0
LINE
8
0
10
13.932900
20
-88.724400
11
-17.000400
21
-88.724400
0
LINE
8
0
10
-17.000400
20
-88.724400
11
-17.000400
21
-92.991100
0
LINE
8
0
10
-17.000400
20
-92.991100
11
-36.200400
21
-92.991100
0
LINE
8
0
10
-36.200400
20
-92.991100
11
-36.200400
21
-88.724400
0
LINE
8
0
10
-36.200400
20
-88.724400
11
-65.000400
21
-88.724400
0
LINE
8
0
10
-65.000400
20
-88.724400
11
-65.000400
21
-75.924400
0
LINE
8
0
10
-65.000400
20
-75.924400
11
-57.533700
21
-75.924400
0
LINE
8
0
10
-57.533700
20
-75.924400
11
-57.533700
21
-65.257800
0
LINE
8
0
10
-57.533700
20
-65.257800
11
-65.000400
21
-65.257800
0
LINE
8
0
10
-65.000400
20
-65.257800
11
-65.000400
21
-52.457800
0
LINE
8
0
10
-65.000400
20
-52.457800
11
-36.200400
21
-52.457800
0
LINE
8
0
10
-36.200400
20
-52.457800
11
-36.200400
21
-48.191100
0
LINE
8
0
10
-36.200400
20
-48.191100
11
-17.000400
21
-48.191100
0
LINE
8
0
10
-17.000400
20
-48.191100
11
-17.000400
21
-52.457800
0
LINE
8
0
10
-17.000400
20
-52.457800
11
13.932900
21
-52.457800
0
LINE
8
0
10
13.932900
20
-52.457800
11
13.932900
21
-65.257800
0
LINE
8
0
10
13.932900
20
-65.257800
11
18.199500
21
-65.257800
0
LINE
8
0
10
18.199500
20
-65.257800
11
18.199500
21
-75.924400
0
LINE
8
0
10
38.082900
20
-75.323100
11
38.082900
21
-88.123100
0
LINE
8
0
10
38.082900
20
-88.123100
11
31.682900
21
-88.123100
0
LINE
8
0
10
31.682900
20
-88.123100
11
31.682900
21
-92.389700
0
LINE
8
0
10
31.682900
20
-92.389700
11
21.016200
21
-92.389700
0
LINE
8
0
10
21.016200
20
-92.389700
11
21.016200
21
-88.123100
0
LINE
8
0
10
21.016200
20
-88.123100
11
15.682900
21
-88.123100
0
LINE
8
0
10
15.682900
20
-88.123100
11
15.682900
21
-77.456400
0
LINE
8
0
10
15.682900
20
-77.456400
11
22.082900
21
-77.456400
0
LINE
8
0
10
22.082900
20
-77.456400
11
22.082900
21
-62.523100
0
LINE
8
0
10
22.082900
20
-62.523100
11
15.682900
21
-62.523100
0
LINE
8
0
10
15.682900
20
-62.523100
11
15.682900
21
-51.856400
0
LINE
8
0
10
15.682900
20
-51.856400
11
21.016200
21
-51.856400
0
LINE
8
0
10
21.016200
20
-51.856400
11
21.016200
21
-47.589700
0
LINE
8
0
10
21.016200
20
-47.589700
11
31.682900
21
-47.589700
0
LINE
8
0
10
31.682900
20
-47.589700
11
31.682900
21
-51.856400
0
LINE
8
0
10
31.682900
20
-51.856400
11
38.082900
21
-51.856400
0
LINE
8
0
10
38.082900
20
-51.856400
11
38.082900
21
-65.723100
0
LINE
8
0
10
38.082900
20
-65.723100
11
42.349500
21
-65.723100
0
LINE
8
0
10
42.349500
20
-65.723100
11
42.349500
21
-75.323100
0
LINE
8
0
10
42.349500
20
-75.323100
11
38.082900
21
-75.323100
0
LINE
8
0
10
37.265900
20
-143.811000
11
35.662026
21
-144.377753
0
LINE
8
0
10
35.662026
20
-144.377753
11
33.992730
21
-144.566671
0
LINE
8
0
10
33.992730
20
-144.566671
11
32.323434
21
-144.377753
0
LINE
8
0
10
32.323434
20
-144.377753
11
30.719560
21
-143.811000
0
LINE
8
0
10
30.719560
20
-143.811000
11
31.654751
21
-141.893580
0
LINE
8
0
10
31.654751
20
-141.893580
11
32.800376
21
-142.298404
0
LINE
8
0
10
32.800376
20
-142.298404
11
33.992731
21
-142.433346
0
LINE
8
0
10
33.992731
20
-142.433346
11
35.185086
21
-142.298404
0
LINE
8
0
10
35.185086
20
-142.298404
11
36.330711
21
-141.893580
0
LINE
8
0
10
36.330711
20
-141.893580
11
37.265900
21
-143.811000
0
LINE
8
0
10
33.807500
20
-136.050000
11
33.365755
21
-136.237507
0
LINE
8
0
10
33.365755
20
-136.237507
11
33.050914
21
-136.599684
0
LINE
8
0
10
33.807500
20
-136.050000
11
33.992725
21
-137.100460
0
LINE
8
0
10
33.992800
20
-137.100000
11
34.178022
21
-136.049540
0
LINE
8
0
10
34.934600
20
-136.599000
11
34.619759
21
-136.236823
0
LINE
8
0
10
34.619759
20
-136.236823
11
34.178014
21
-136.049316
0
LINE
8
0
10
34.934600
20
-136.599000
11
33.992791
21
-137.099775
0
LINE
8
0
10
33.992800
20
-137.100000
11
35.049080
21
-136.951551
0
LINE
8
0
10
34.760100
20
-137.841000
11
35.007265
21
-137.429648
0
LINE
8
0
10
35.007265
20
-137.429648
11
35.049090
21
-136.951577
0
LINE
8
0
10
34.760100
20
-137.841000
11
33.992806
21
-137.100026
0
LINE
8
0
10
33.992800
20
-137.100000
11
34.460394
21
-138.058708
0
LINE
8
0
10
33.525200
20
-138.059000
11
33.992795
21
-138.166952
0
LINE
8
0
10
33.992795
20
-138.166952
11
34.460391
21
-138.059000
0
LINE
8
0
10
33.525200
20
-138.059000
11
33.992797
21
-137.100292
0
LINE
8
0
10
33.992800
20
-137.100000
11
33.225503
21
-137.840974
0
LINE
8
0
10
32.936500
20
-136.952000
11
32.978325
21
-137.430071
0
LINE
8
0
10
32.978325
20
-137.430071
11
33.225490
21
-137.841423
0
LINE
8
0
10
32.936500
20
-136.952000
11
33.992790
21
-137.100449
0
LINE
8
0
10
33.992800
20
-137.100000
11
33.050988
21
-136.599225
0
LINE
8
0
10
28.711300
20
-136.358000
11
26.598730
21
-136.061102
0
LINE
8
0
10
26.598730
20
-136.061102
11
26.555341
21
-137.761610
0
LINE
8
0
10
26.555341
20
-137.761610
11
26.891511
21
-139.407582
0
LINE
8
0
10
26.891511
20
-139.407582
11
27.587023
21
-140.936796
0
LINE
8
0
10
27.587023
20
-140.936796
11
28.621660
21
-142.287032
0
LINE
8
0
10
28.621660
20
-142.287032
11
30.156250
21
-140.805082
0
LINE
8
0
10
30.156250
20
-140.805082
11
29.417226
21
-139.840630
0
LINE
8
0
10
29.417226
20
-139.840630
11
28.920432
21
-138.748338
0
LINE
8
0
10
28.920432
20
-138.748338
11
28.680310
21
-137.572647
0
LINE
8
0
10
28.680310
20
-137.572647
11
28.711300
21
-136.358002
0
LINE
8
0
10
28.711300
20
-136.358002
11
28.711300
21
-136.358000
0
LINE
8
0
10
30.225500
20
-135.097000
11
30.776603
21
-134.296287
0
LINE
8
0
10
30.776603
20
-134.296287
11
31.484857
21
-133.648272
0
LINE
8
0
10
31.484857
20
-133.648272
11
32.320017
21
-133.174928
0
LINE
8
0
10
32.320017
20
-133.174928
11
33.251840
21
-132.898230
0
LINE
8
0
10
33.251840
20
-132.898230
11
33.622290
21
-134.999150
0
LINE
8
0
10
33.622290
20
-134.999150
11
32.738796
21
-135.374177
0
LINE
8
0
10
32.738796
20
-135.374177
11
32.109120
21
-136.098550
0
LINE
8
0
10
32.109120
20
-136.098550
11
30.225500
21
-135.097000
0
LINE
8
0
10
35.863200
20
-140.935000
11
34.946700
21
-141.258860
0
LINE
8
0
10
34.946700
20
-141.258860
11
33.992815
21
-141.366814
0
LINE
8
0
10
33.992815
20
-141.366814
11
33.038930
21
-141.258860
0
LINE
8
0
10
33.038930
20
-141.258860
11
32.122430
21
-140.935000
0
LINE
8
0
10
32.122430
20
-140.935000
11
33.057621
21
-139.017580
0
LINE
8
0
10
33.057621
20
-139.017580
11
33.992811
21
-139.233486
0
LINE
8
0
10
33.992811
20
-139.233486
11
34.928001
21
-139.017580
0
LINE
8
0
10
34.928001
20
-139.017580
11
35.863200
21
-140.935000
0
LINE
8
0
10
37.829200
20
-140.805000
11
39.363790
21
-142.286950
0
LINE
8
0
10
39.363790
20
-142.286950
11
40.398427
21
-140.936714
0
LINE
8
0
10
40.398427
20
-140.936714
11
41.093939
21
-139.407500
0
LINE
8
0
10
41.093939
20
-139.407500
11
41.430109
21
-137.761528
0
LINE
8
0
10
41.430109
20
-137.761528
11
41.386720
21
-136.061020
0
LINE
8
0
10
41.386720
20
-136.061020
11
39.274150
21
-136.357918
0
LINE
8
0
10
39.274150
20
-136.357918
11
39.305140
21
-137.572563
0
LINE
8
0
10
39.305140
20
-137.572563
11
39.065018
21
-138.748254
0
LINE
8
0
10
39.065018
20
-138.748254
11
38.568224
21
-139.840546
0
LINE
8
0
10
38.568224
20
-139.840546
11
37.829200
21
-140.804998
0
LINE
8
0
10
37.829200
20
-140.804998
11
37.829200
21
-140.805000
0
LINE
8
0
10
35.876400
20
-136.099000
11
37.760020
21
-135.097450
0
LINE
8
0
10
37.760020
20
-135.097450
11
37.208917
21
-134.296737
0
LINE
8
0
10
37.208917
20
-134.296737
11
36.500663
21
-133.648722
0
LINE
8
0
10
36.500663
20
-133.648722
11
35.665503
21
-133.175378
0
LINE
8
0
10
35.665503
20
-133.175378
11
34.733680
21
-132.898680
0
LINE
8
0
10
34.733680
20
-132.898680
11
34.363230
21
-134.999600
0
LINE
8
0
10
34.363230
20
-134.999600
11
35.246724
21
-135.374627
0
LINE
8
0
10
35.246724
20
-135.374627
11
35.876400
21
-136.099000
0
LINE
8
0
10
35.876400
20
-136.099000
11
35.876400
21
-136.099000
0
LINE
8
0
10
31.880200
20
-136.803000
11
29.767630
21
-136.506102
0
LINE
8
0
10
29.767630
20
-136.506102
11
29.742839
21
-137.477817
0
LINE
8
0
10
29.742839
20
-137.477817
11
29.934936
21
-138.418369
0
LINE
8
0
10
29.934936
20
-138.418369
11
30.332371
21
-139.292202
0
LINE
8
0
10
30.332371
20
-139.292202
11
30.923590
21
-140.063762
0
LINE
8
0
10
30.923590
20
-140.063762
11
32.458180
21
-138.581842
0
LINE
8
0
10
32.458180
20
-138.581842
11
31.963849
21
-137.759136
0
LINE
8
0
10
31.963849
20
-137.759136
11
31.880201
21
-136.802992
0
LINE
8
0
10
31.880201
20
-136.802992
11
31.880200
21
-136.803000
0
LINE
8
0
10
27.400100
20
-133.595000
11
28.364532
21
-132.193754
0
LINE
8
0
10
28.364532
20
-132.193754
11
29.603978
21
-131.059729
0
LINE
8
0
10
29.603978
20
-131.059729
11
31.065510
21
-130.231380
0
LINE
8
0
10
31.065510
20
-130.231380
11
32.696200
21
-129.747160
0
LINE
8
0
10
32.696200
20
-129.747160
11
33.066650
21
-131.848080
0
LINE
8
0
10
33.066650
20
-131.848080
11
31.901871
21
-132.193952
0
LINE
8
0
10
31.901871
20
-132.193952
11
30.857919
21
-132.785631
0
LINE
8
0
10
30.857919
20
-132.785631
11
29.972600
21
-133.595649
0
LINE
8
0
10
29.972600
20
-133.595649
11
29.283720
21
-134.596540
0
LINE
8
0
10
29.283720
20
-134.596540
11
27.400100
21
-133.595000
0
LINE
8
0
10
35.527400
20
-138.582000
11
37.061990
21
-140.063920
0
LINE
8
0
10
37.061990
20
-140.063920
11
37.653209
21
-139.292360
0
LINE
8
0
10
37.653209
20
-139.292360
11
38.050644
21
-138.418527
0
LINE
8
0
10
38.050644
20
-138.418527
11
38.242741
21
-137.477975
0
LINE
8
0
10
38.242741
20
-137.477975
11
38.217950
21
-136.506260
0
LINE
8
0
10
38.217950
20
-136.506260
11
36.105380
21
-136.803158
0
LINE
8
0
10
36.105380
20
-136.803158
11
36.021732
21
-137.759302
0
LINE
8
0
10
36.021732
20
-137.759302
11
35.527401
21
-138.582008
0
LINE
8
0
10
35.527401
20
-138.582008
11
35.527400
21
-138.582000
0
LINE
8
0
10
38.701800
20
-134.596000
11
40.585420
21
-133.594460
0
LINE
8
0
10
40.585420
20
-133.594460
11
39.620988
21
-132.193214
0
LINE
8
0
10
39.620988
20
-132.193214
11
38.381542
21
-131.059189
0
LINE
8
0
10
38.381542
20
-131.059189
11
36.920010
21
-130.230840
0
LINE
8
0
10
36.920010
20
-130.230840
11
35.289320
21
-129.746620
0
LINE
8
0
10
35.289320
20
-129.746620
11
34.918873
21
-131.847540
0
LINE
8
0
10
34.918873
20
-131.847540
11
36.083652
21
-132.193412
0
LINE
8
0
10
36.083652
20
-132.193412
11
37.127604
21
-132.785091
0
LINE
8
0
10
37.127604
20
-132.785091
11
38.012923
21
-133.595109
0
LINE
8
0
10
38.012923
20
-133.595109
11
38.701803
21
-134.596000
0
LINE
8
0
10
38.701803
20
-134.596000
11
38.701800
21
-134.596000
0
LINE
8
0
10
24.392800
20
-155.233000
11
24.392800
21
-142.433000
0
LINE
8
0
10
24.392800
20
-142.433000
11
20.126100
21
-142.433000
0
LINE
8
0
10
20.126100
20
-142.433000
11
20.126100
21
-132.833000
0
LINE
8
0
10
20.126100
20
-132.833000
11
24.392800
21
-132.833000
0
LINE
8
0
10
24.392800
20
-132.833000
11
24.392800
21
-118.967000
0
LINE
8
0
10
24.392800
20
-118.967000
11
30.792800
21
-118.967000
0
LINE
8
0
10
30.792800
20
-118.967000
11
30.792800
21
-114.700000
0
LINE
8
0
10
30.792800
20
-114.700000
11
41.459400
21
-114.700000
0
LINE
8
0
10
41.459400
20
-114.700000
11
41.459400
21
-118.967000
0
LINE
8
0
10
41.459400
20
-118.967000
11
46.792800
21
-118.967000
0
LINE
8
0
10
46.792800
20
-118.967000
11
46.792800
21
-131.767000
0
LINE
8
0
10
46.792800
20
-131.767000
11
42.526100
21
-131.767000
0
LINE
8
0
10
42.526100
20
-131.767000
11
42.526100
21
-142.433000
0
LINE
8
0
10
42.526100
20
-142.433000
11
46.792800
21
-142.433000
0
LINE
8
0
10
46.792800
20
-142.433000
11
46.792800
21
-155.233000
0
LINE
8
0
10
46.792800
20
-155.233000
11
41.459400
21
-155.233000
0
LINE
8
0
10
41.459400
20
-155.233000
11
41.459400
21
-159.500000
0
LINE
8
0
10
41.459400
20
-159.500000
11
30.792800
21
-159.500000
0
LINE
8
0
10
30.792800
20
-159.500000
11
30.792800
21
-155.233000
0
LINE
8
0
10
30.792800
20
-155.233000
11
24.392800
21
-155.233000
0
LINE
8
0
10
-50.067100
20
-80.191100
11
-15.933800
21
-80.191100
0
LINE
8
0
10
-15.933800
20
-80.191100
11
-15.933800
21
-60.991100
0
LINE
8
0
10
-15.933800
20
-60.991100
11
-50.067100
21
-60.991100
0
LINE
8
0
10
-50.067100
20
-60.991100
11
-50.067100
21
-80.191100
 0 
ENDSEC
 0 
EOF