<?xml version="1.0" encoding="UTF-8" standalone="no"?>
<svg
   xmlns:dc="http://purl.org/dc/elements/1.1/"
   xmlns:cc="http://creativecommons.org/ns#"
   xmlns:rdf="http://www.w3.org/1999/02/22-rdf-syntax-ns#"
   xmlns:svg="http://www.w3.org/2000/svg"
   xmlns="http://www.w3.org/2000/svg"
   xmlns:sodipodi="http://sodipodi.sourceforge.net/DTD/sodipodi-0.dtd"
   xmlns:inkscape="http://www.inkscape.org/namespaces/inkscape"
   viewBox="0 0 397.47018 522.44136"
   width="105.16399mm"
   height="138.22928mm"
   version="1.1"
   id="svg1393"
   sodipodi:docname="case.svg"
   inkscape:version="1.0.1 (c497b03c, 2020-09-10)">
  <metadata
     id="metadata1397">
    <rdf:RDF>
      <cc:Work
         rdf:about="">
        <dc:format>image/svg+xml</dc:format>
        <dc:type
           rdf:resource="http://purl.org/dc/dcmitype/StillImage" />
        <dc:title></dc:title>
      </cc:Work>
    </rdf:RDF>
  </metadata>
  <sodipodi:namedview
     pagecolor="#ffffff"
     bordercolor="#666666"
     borderopacity="1"
     objecttolerance="10"
     gridtolerance="10"
     guidetolerance="10"
     inkscape:pageopacity="0"
     inkscape:pageshadow="2"
     inkscape:window-width="1792"
     inkscape:window-height="1067"
     id="namedview1395"
     showgrid="false"
     fit-margin-top="0"
     fit-margin-left="0"
     fit-margin-right="0"
     fit-margin-bottom="0"
     units="mm"
     inkscape:document-units="mm"
     inkscape:zoom="0.76524273"
     inkscape:cx="480.35377"
     inkscape:cy="113.75141"
     inkscape:window-x="0"
     inkscape:window-y="25"
     inkscape:window-maximized="1"
     inkscape:current-layer="g1389" />
  <defs
     id="defs1143">
    <marker
       id="DistanceX"
       orient="auto"
       refX="0"
       refY="0"
       style="overflow:visible">
      <path
         d="M 3,-3 -3,3 M 0,-5 V 5"
         style="stroke:#000000;stroke-width:0.5"
         id="path1131" />
    </marker>
    <pattern
       id="Hatch"
       patternUnits="userSpaceOnUse"
       width="8"
       height="8"
       x="0"
       y="0">
      <path
         d="M8 4 l-4,4"
         stroke="#000000"
         stroke-width="0.25"
         linecap="square"
         id="path1134" />
      <path
         d="M6 2 l-4,4"
         stroke="#000000"
         stroke-width="0.25"
         linecap="square"
         id="path1136" />
      <path
         d="M4 0 l-4,4"
         stroke="#000000"
         stroke-width="0.25"
         linecap="square"
         id="path1138" />
    </pattern>
    <symbol
       id="*MODEL_SPACE" />
    <symbol
       id="*PAPER_SPACE" />
  </defs>
  <g
     inkscape:groupmode="layer"
     inkscape:label="0"
     id="g1389"
     transform="translate(231.16893,-690.56855)">
    <path
       d="m 83.391543,1053.7697 -4e-6,64.252 H 68.273428 v 34.0157 h 15.118111 l 4e-6,60.4725 H -41.332868 v -15.1182 h -68.031502 v 15.1182 h -117.16535 v -60.4725 h 15.11811 v -34.0157 h -15.11811 v -64.252 h 117.16535 v 15.1181 h 68.031502 v -15.1181 z"
       style="fill:none;stroke:#ff0000;stroke-opacity:1"
       id="path1145" />
    <path
       d="m 34.827246,1011.5098 -3.938221,-4.0781 a 3.779528,3.779528 0 0 1 -3.151489,1.024 l -0.789013,5.6141 a 9.448819,9.448819 0 0 0 7.878723,-2.56 z"
       style="fill:none;stroke:#ff0000;stroke-opacity:1"
       id="path1147" />
    <path
       d="m 25.633502,985.9992 0.789013,5.61412 a 13.228346,13.228346 0 0 1 11.030212,3.58393 l 3.93822,-4.07814 A 18.897638,18.897638 0 0 0 25.633502,985.9992 Z"
       style="fill:none;stroke:#ff0000;stroke-opacity:1"
       id="path1149" />
    <path
       d="M 17.617261,984.69018 14.95569,979.68449 A 28.346457,28.346457 0 0 0 0.34773456,999.79062 l 5.58316204,0.98448 A 22.677165,22.677165 0 0 1 17.617261,984.69018 Z"
       style="fill:none;stroke:#ff0000;stroke-opacity:1"
       id="path1151" />
    <path
       d="m 5.9308966,1008.6508 -5.58316204,0.9844 A 28.346457,28.346457 0 0 0 14.95569,1029.7414 l 2.661571,-5.0057 A 22.677165,22.677165 0 0 1 5.9308966,1008.6508 Z"
       style="fill:none;stroke:#ff0000;stroke-opacity:1"
       id="path1153" />
    <path
       d="m 44.016428,988.40034 3.93822,-4.07815 a 28.346457,28.346457 0 0 0 -23.636167,-7.67985 l 0.789013,5.61412 a 22.677165,22.677165 0 0 1 18.908934,6.14388 z"
       style="fill:none;stroke:#ff0000;stroke-opacity:1"
       id="path1155" />
    <path
       d="m 45.248629,996.42875 a 18.897638,18.897638 0 0 1 0,16.56835 l -5.095525,-2.4852 a 13.228346,13.228346 0 0 0 0,-11.5979 z"
       style="fill:none;stroke:#ff0000;stroke-opacity:1"
       id="path1157" />
    <path
       d="m 23.827593,1013.0557 2.661571,-5.0056 a 3.779528,3.779528 0 0 1 -1.947727,-2.6809 l -5.583162,0.9845 a 9.448819,9.448819 0 0 0 4.869318,6.702 z"
       style="fill:none;stroke:#ff0000;stroke-opacity:1"
       id="path1159" />
    <path
       d="m 36.756087,1000.5708 a 9.448819,9.448819 0 0 1 0,8.2842 l -5.095525,-2.4852 a 3.779528,3.779528 0 0 0 0,-3.3137 z"
       style="fill:none;stroke:#ff0000;stroke-opacity:1"
       id="path1161" />
    <path
       d="m 9.6530046,1001.4314 a 18.897638,18.897638 0 0 1 9.7386364,-13.4041 l 2.661571,5.00569 a 13.228346,13.228346 0 0 0 -6.817045,9.38291 z"
       style="fill:none;stroke:#ff0000;stroke-opacity:1"
       id="path1163" />
    <path
       d="m 19.391641,1021.3986 2.661571,-5.0057 a 13.228346,13.228346 0 0 1 -6.817045,-9.3829 l -5.5831624,0.9845 a 18.897638,18.897638 0 0 0 9.7386364,13.4041 z"
       style="fill:none;stroke:#ff0000;stroke-opacity:1"
       id="path1165" />
    <path
       d="m 25.107494,1027.1694 -0.789013,5.6141 a 28.346457,28.346457 0 0 0 23.636167,-7.6798 l -3.93822,-4.0782 a 22.677165,22.677165 0 0 1 -18.908934,6.1439 z"
       style="fill:none;stroke:#ff0000;stroke-opacity:1"
       id="path1167" />
    <path
       d="m 48.645646,1014.6539 5.095525,2.4853 a 28.346457,28.346457 0 0 0 0,-24.85254 l -5.095525,2.48525 a 22.677165,22.677165 0 0 1 0,19.88199 z"
       style="fill:none;stroke:#ff0000;stroke-opacity:1"
       id="path1169" />
    <path
       d="m 41.390947,1018.3068 -3.93822,-4.0782 a 13.228346,13.228346 0 0 1 -11.030212,3.5839 l -0.789013,5.6142 a 18.897638,18.897638 0 0 0 15.757445,-5.1199 z"
       style="fill:none;stroke:#ff0000;stroke-opacity:1"
       id="path1171" />
    <path
       d="m 18.958275,1003.0722 5.583162,0.9844 a 3.779528,3.779528 0 0 1 1.947727,-2.6808 l -2.661571,-5.00568 a 9.448819,9.448819 0 0 0 -4.869318,6.70208 z"
       style="fill:none;stroke:#ff0000;stroke-opacity:1"
       id="path1173" />
    <path
       d="m 26.948523,995.35606 0.789013,5.61414 a 3.779528,3.779528 0 0 1 3.151489,1.024 l 3.938221,-4.07818 a 9.448819,9.448819 0 0 0 -7.878723,-2.55996 z"
       style="fill:none;stroke:#ff0000;stroke-opacity:1"
       id="path1175" />
    <path
       d="m -107.29965,1047.8593 h -117.16536 v -18.8976 h 15.11811 v -37.79531 h -15.11811 v -22.67717 h 117.16536 v -15.11811 h 68.031494 v 15.11811 H 85.456256 l -5e-6,22.67717 h -15.11811 v 37.79531 h 15.11811 l 5e-6,18.8976 H -39.268156 v -15.1181 h -68.031494 z"
       style="fill:none;stroke:#ff0000;stroke-opacity:1"
       id="path1177" />
    <path
       d="m -176.1017,911.00648 -3.93822,4.07815 a 9.448819,9.448819 0 0 0 7.87872,2.55995 l -0.78901,-5.61412 a 3.779528,3.779528 0 0 1 -3.15149,-1.02398 z"
       style="fill:none;stroke:#ff0000;stroke-opacity:1"
       id="path1179" />
    <path
       d="m -171.63519,895.18811 0.78901,-5.61412 a 18.897638,18.897638 0 0 0 -15.75744,5.11991 l 3.93822,4.07814 a 13.228346,13.228346 0 0 1 11.03021,-3.58393 z"
       style="fill:none;stroke:#ff0000;stroke-opacity:1"
       id="path1181" />
    <path
       d="m -160.16837,883.25928 -2.66157,5.00569 a 22.677165,22.677165 0 0 1 11.68637,16.0849 l 5.58316,-0.98446 a 28.346457,28.346457 0 0 0 -14.60796,-20.10613 z"
       style="fill:none;stroke:#ff0000;stroke-opacity:1"
       id="path1183" />
    <path
       d="m -145.56041,913.21003 -5.58316,-0.98446 a 22.677165,22.677165 0 0 1 -11.68637,16.0849 l 2.66157,5.00568 a 28.346457,28.346457 0 0 0 14.60796,-20.10612 z"
       style="fill:none;stroke:#ff0000;stroke-opacity:1"
       id="path1185" />
    <path
       d="m -193.16732,887.89698 3.93822,4.07815 a 22.677165,22.677165 0 0 1 18.90893,-6.14388 l 0.78901,-5.61412 a 28.346457,28.346457 0 0 0 -23.63616,7.67985 z"
       style="fill:none;stroke:#ff0000;stroke-opacity:1"
       id="path1187" />
    <path
       d="m -190.46131,916.5719 a 18.897638,18.897638 0 0 1 0,-16.56836 l 5.09553,2.48525 a 13.228346,13.228346 0 0 0 0,11.59785 z"
       style="fill:none;stroke:#ff0000;stroke-opacity:1"
       id="path1189" />
    <path
       d="m -171.70184,911.62484 2.66157,5.00569 a 9.448819,9.448819 0 0 0 4.86932,-6.70204 l -5.58316,-0.98446 a 3.779528,3.779528 0 0 1 -1.94773,2.68081 z"
       style="fill:none;stroke:#ff0000;stroke-opacity:1"
       id="path1191" />
    <path
       d="m -181.96876,912.42981 a 9.448819,9.448819 0 0 1 0,-8.28418 l 5.09552,2.48525 a 3.779528,3.779528 0 0 0 0,3.31367 z"
       style="fill:none;stroke:#ff0000;stroke-opacity:1"
       id="path1193" />
    <path
       d="m -164.60432,891.60209 a 18.897638,18.897638 0 0 1 9.73864,13.40409 l -5.58316,0.98446 a 13.228346,13.228346 0 0 0 -6.81705,-9.38286 z"
       style="fill:none;stroke:#ff0000;stroke-opacity:1"
       id="path1195" />
    <path
       d="m -167.26589,919.96765 2.66157,5.00569 a 18.897638,18.897638 0 0 0 9.73864,-13.40408 l -5.58316,-0.98446 a 13.228346,13.228346 0 0 1 -6.81705,9.38285 z"
       style="fill:none;stroke:#ff0000;stroke-opacity:1"
       id="path1197" />
    <path
       d="m -169.53116,936.35831 -0.78901,-5.61412 a 22.677165,22.677165 0 0 1 -18.90893,-6.14388 l -3.93822,4.07814 a 28.346457,28.346457 0 0 0 23.63616,7.67986 z"
       style="fill:none;stroke:#ff0000;stroke-opacity:1"
       id="path1199" />
    <path
       d="m -198.95385,920.71399 5.09553,-2.48526 a 22.677165,22.677165 0 0 1 0,-19.88203 l -5.09553,-2.48525 a 28.346457,28.346457 0 0 0 0,24.85254 z"
       style="fill:none;stroke:#ff0000;stroke-opacity:1"
       id="path1201" />
    <path
       d="m -182.6654,917.80339 -3.93822,4.07815 a 18.897638,18.897638 0 0 0 15.75744,5.11991 l -0.78901,-5.61412 a 13.228346,13.228346 0 0 1 -11.03021,-3.58394 z"
       style="fill:none;stroke:#ff0000;stroke-opacity:1"
       id="path1203" />
    <path
       d="m -169.75411,907.63141 5.58316,-0.98446 a 9.448819,9.448819 0 0 0 -4.86932,-6.70204 l -2.66157,5.00568 a 3.779528,3.779528 0 0 1 1.94773,2.68082 z"
       style="fill:none;stroke:#ff0000;stroke-opacity:1"
       id="path1205" />
    <path
       d="m -172.95021,904.54497 0.78901,-5.61412 a 9.448819,9.448819 0 0 0 -7.87872,2.55996 l 3.93822,4.07814 a 3.779528,3.779528 0 0 1 3.15149,-1.02398 z"
       style="fill:none;stroke:#ff0000;stroke-opacity:1"
       id="path1207" />
    <path
       d="m 64.134223,894.74118 v 37.79527 h 15.11811 v 18.89764 H -37.913023 v -15.11811 h -68.031497 v 15.11811 h -124.72441 v -18.89764 h 15.11811 v -37.79527 h -15.11811 v -22.67717 h 124.72441 V 856.9459 h 68.031497 v 15.11811 H 79.252333 v 22.67717 z"
       style="fill:none;stroke:#ff0000;stroke-opacity:1"
       id="path1209" />
    <path
       d="m 36.140104,827.37265 v -22.67717 h -3.779528 v 22.67717 z"
       style="fill:none;stroke:#ff0000;stroke-opacity:1"
       id="path1211" />
    <path
       d="m -12.993755,778.23879 v 22.67716 h 3.7795276 v -22.67716 z"
       style="fill:none;stroke:#ff0000;stroke-opacity:1"
       id="path1213" />
    <path
       d="m 24.801521,827.37265 h 3.779528 v -7.55906 h -3.779528 z"
       style="fill:none;stroke:#ff0000;stroke-opacity:1"
       id="path1215" />
    <path
       d="m -1.6551724,793.3569 h -3.779527 v 22.67716 h 3.779527 z"
       style="fill:none;stroke:#ff0000;stroke-opacity:1"
       id="path1217" />
    <path
       d="m 43.699159,819.81359 h -3.779528 v 7.55906 h 3.779528 z"
       style="fill:none;stroke:#ff0000;stroke-opacity:1"
       id="path1219" />
    <path
       d="m -1.6551724,766.90021 h -3.779527 v 22.67716 h 3.779527 z"
       style="fill:none;stroke:#ff0000;stroke-opacity:1"
       id="path1221" />
    <path
       d="m -12.993755,804.69548 v 22.67717 h 3.7795276 v -22.67717 z"
       style="fill:none;stroke:#ff0000;stroke-opacity:1"
       id="path1223" />
    <path
       d="m 24.801521,736.66399 h 3.779528 v -22.67717 h -3.779528 z"
       style="fill:none;stroke:#ff0000;stroke-opacity:1"
       id="path1225" />
    <path
       d="m 39.919631,713.98682 v 22.67717 h 3.779528 v -22.67717 z"
       style="fill:none;stroke:#ff0000;stroke-opacity:1"
       id="path1227" />
    <path
       d="M -24.332337,748.00257 V 725.3254 h -3.779528 v 22.67717 z"
       style="fill:none;stroke:#ff0000;stroke-opacity:1"
       id="path1229" />
    <path
       d="m -12.993755,719.65611 h 3.7795276 v -5.66929 h -3.7795276 z"
       style="fill:none;stroke:#ff0000;stroke-opacity:1"
       id="path1231" />
    <path
       d="m -43.229975,719.65611 h 3.779527 v -5.66929 h -3.779527 z"
       style="fill:none;stroke:#ff0000;stroke-opacity:1"
       id="path1233" />
    <path
       d="m -28.111865,719.65611 h 3.779528 v -5.66929 h -3.779528 z"
       style="fill:none;stroke:#ff0000;stroke-opacity:1"
       id="path1235" />
    <path
       d="m -35.67092,736.66399 h 3.779528 v -22.67717 h -3.779528 z"
       style="fill:none;stroke:#ff0000;stroke-opacity:1"
       id="path1237" />
    <path
       d="M 5.9038826,748.00257 V 725.3254 h -3.779527 v 22.67717 z"
       style="fill:none;stroke:#ff0000;stroke-opacity:1"
       id="path1239" />
    <path
       d="M 13.462938,763.12068 V 740.44351 H 9.6834106 v 22.67717 z"
       style="fill:none;stroke:#ff0000;stroke-opacity:1"
       id="path1241" />
    <path
       d="M -9.2142274,748.00257 V 725.3254 h -3.7795276 v 22.67717 z"
       style="fill:none;stroke:#ff0000;stroke-opacity:1"
       id="path1243" />
    <path
       d="m 17.242466,751.7821 v 22.67716 h 3.779527 V 751.7821 Z"
       style="fill:none;stroke:#ff0000;stroke-opacity:1"
       id="path1245" />
    <path
       d="m 24.801521,763.12068 h 3.779528 v -22.67717 h -3.779528 z"
       style="fill:none;stroke:#ff0000;stroke-opacity:1"
       id="path1247" />
    <path
       d="m 43.699159,763.12068 v -22.67717 h -3.779528 v 22.67717 z"
       style="fill:none;stroke:#ff0000;stroke-opacity:1"
       id="path1249" />
    <path
       d="m 2.1243556,800.91595 h 3.779527 v -22.67716 h -3.779527 z"
       style="fill:none;stroke:#ff0000;stroke-opacity:1"
       id="path1251" />
    <path
       d="M 36.140104,774.45926 V 751.7821 h -3.779528 v 22.67716 z"
       style="fill:none;stroke:#ff0000;stroke-opacity:1"
       id="path1253" />
    <path
       d="m 17.242466,778.23879 v 22.67716 h 3.779527 v -22.67716 z"
       style="fill:none;stroke:#ff0000;stroke-opacity:1"
       id="path1255" />
    <path
       d="M 43.699159,816.03406 V 793.3569 h -3.779528 v 22.67716 z"
       style="fill:none;stroke:#ff0000;stroke-opacity:1"
       id="path1257" />
    <path
       d="m -16.773282,789.57737 v -22.67716 h -3.779528 v 22.67716 z"
       style="fill:none;stroke:#ff0000;stroke-opacity:1"
       id="path1259" />
    <path
       d="m -39.450448,804.69548 h -3.779527 v 22.67717 h 3.779527 z"
       style="fill:none;stroke:#ff0000;stroke-opacity:1"
       id="path1261" />
    <path
       d="m 17.242466,804.69548 v 22.67717 h 3.779527 v -22.67717 z"
       style="fill:none;stroke:#ff0000;stroke-opacity:1"
       id="path1263" />
    <path
       d="M -16.773282,816.03406 V 793.3569 h -3.779528 v 22.67716 z"
       style="fill:none;stroke:#ff0000;stroke-opacity:1"
       id="path1265" />
    <path
       d="m -28.111865,804.69548 v 22.67717 h 3.779528 v -22.67717 z"
       style="fill:none;stroke:#ff0000;stroke-opacity:1"
       id="path1267" />
    <path
       d="m -35.67092,793.3569 v 22.67716 h 3.779528 V 793.3569 Z"
       style="fill:none;stroke:#ff0000;stroke-opacity:1"
       id="path1269" />
    <path
       d="M 13.462938,816.03406 V 793.3569 H 9.6834106 v 22.67716 z"
       style="fill:none;stroke:#ff0000;stroke-opacity:1"
       id="path1271" />
    <path
       d="m 24.801521,789.57737 h 3.779528 v -22.67716 h -3.779528 z"
       style="fill:none;stroke:#ff0000;stroke-opacity:1"
       id="path1273" />
    <path
       d="m 24.801521,816.03406 h 3.779528 V 793.3569 h -3.779528 z"
       style="fill:none;stroke:#ff0000;stroke-opacity:1"
       id="path1275" />
    <path
       d="M 13.462938,789.57737 V 766.90021 H 9.6834106 v 22.67716 z"
       style="fill:none;stroke:#ff0000;stroke-opacity:1"
       id="path1277" />
    <path
       d="m 2.1243556,827.37265 h 3.779527 v -22.67717 h -3.779527 z"
       style="fill:none;stroke:#ff0000;stroke-opacity:1"
       id="path1279" />
    <path
       d="m -28.111865,778.23879 v 22.67716 h 3.779528 v -22.67716 z"
       style="fill:none;stroke:#ff0000;stroke-opacity:1"
       id="path1281" />
    <path
       d="m 2.1243556,774.45926 h 3.779527 V 751.7821 h -3.779527 z"
       style="fill:none;stroke:#ff0000;stroke-opacity:1"
       id="path1283" />
    <path
       d="m 32.360576,719.65611 h 3.779528 v -5.66929 h -3.779528 z"
       style="fill:none;stroke:#ff0000;stroke-opacity:1"
       id="path1285" />
    <path
       d="m -39.450448,751.7821 h -3.779527 v 22.67716 h 3.779527 z"
       style="fill:none;stroke:#ff0000;stroke-opacity:1"
       id="path1287" />
    <path
       d="m 2.1243556,719.65611 h 3.779527 v -5.66929 h -3.779527 z"
       style="fill:none;stroke:#ff0000;stroke-opacity:1"
       id="path1289" />
    <path
       d="M 9.6834106,736.66399 H 13.462938 V 713.98682 H 9.6834106 Z"
       style="fill:none;stroke:#ff0000;stroke-opacity:1"
       id="path1291" />
    <path
       d="M 21.021993,748.00257 V 725.3254 h -3.779527 v 22.67717 z"
       style="fill:none;stroke:#ff0000;stroke-opacity:1"
       id="path1293" />
    <path
       d="M -39.450448,748.00257 V 725.3254 h -3.779527 v 22.67717 z"
       style="fill:none;stroke:#ff0000;stroke-opacity:1"
       id="path1295" />
    <path
       d="m 32.360576,725.3254 v 22.67717 h 3.779528 V 725.3254 Z"
       style="fill:none;stroke:#ff0000;stroke-opacity:1"
       id="path1297" />
    <path
       d="m -20.55281,736.66399 h 3.779528 v -22.67717 h -3.779528 z"
       style="fill:none;stroke:#ff0000;stroke-opacity:1"
       id="path1299" />
    <path
       d="m 17.242466,719.65611 h 3.779527 v -5.66929 h -3.779527 z"
       style="fill:none;stroke:#ff0000;stroke-opacity:1"
       id="path1301" />
    <path
       d="m -35.67092,766.90021 v 22.67716 h 3.779528 v -22.67716 z"
       style="fill:none;stroke:#ff0000;stroke-opacity:1"
       id="path1303" />
    <path
       d="m -5.4346994,736.66399 h 3.779527 v -22.67717 h -3.779527 z"
       style="fill:none;stroke:#ff0000;stroke-opacity:1"
       id="path1305" />
    <path
       d="m -39.450448,778.23879 h -3.779527 v 22.67716 h 3.779527 z"
       style="fill:none;stroke:#ff0000;stroke-opacity:1"
       id="path1307" />
    <path
       d="m -16.773282,763.12068 v -22.67717 h -3.779528 v 22.67717 z"
       style="fill:none;stroke:#ff0000;stroke-opacity:1"
       id="path1309" />
    <path
       d="m -1.6551724,740.44351 h -3.779527 v 22.67717 h 3.779527 z"
       style="fill:none;stroke:#ff0000;stroke-opacity:1"
       id="path1311" />
    <path
       d="m -35.67092,740.44351 v 22.67717 h 3.779528 v -22.67717 z"
       style="fill:none;stroke:#ff0000;stroke-opacity:1"
       id="path1313" />
    <path
       d="m 43.699159,789.57737 v -22.67716 h -3.779528 v 22.67716 z"
       style="fill:none;stroke:#ff0000;stroke-opacity:1"
       id="path1315" />
    <path
       d="m -28.111865,751.7821 v 22.67716 h 3.779528 V 751.7821 Z"
       style="fill:none;stroke:#ff0000;stroke-opacity:1"
       id="path1317" />
    <path
       d="m -12.993755,751.7821 v 22.67716 h 3.7795276 V 751.7821 Z"
       style="fill:none;stroke:#ff0000;stroke-opacity:1"
       id="path1319" />
    <path
       d="m -20.55281,827.37265 h 3.779528 v -7.55906 h -3.779528 z"
       style="fill:none;stroke:#ff0000;stroke-opacity:1"
       id="path1321" />
    <path
       d="m -35.67092,827.37265 h 3.779528 v -7.55906 h -3.779528 z"
       style="fill:none;stroke:#ff0000;stroke-opacity:1"
       id="path1323" />
    <path
       d="m 9.6834106,827.37265 h 3.7795274 v -7.55906 H 9.6834106 Z"
       style="fill:none;stroke:#ff0000;stroke-opacity:1"
       id="path1325" />
    <path
       d="m 36.140104,800.91595 v -22.67716 h -3.779528 v 22.67716 z"
       style="fill:none;stroke:#ff0000;stroke-opacity:1"
       id="path1327" />
    <path
       d="m -5.4346994,827.37265 h 3.779527 v -7.55906 h -3.779527 z"
       style="fill:none;stroke:#ff0000;stroke-opacity:1"
       id="path1329" />
    <path
       d="M 64.486561,791.46714 H 49.36845 v 45.35433 H -60.237851 v 15.11811 h -68.031499 v -15.11811 h -102.04724 v -45.35433 h 26.45669 v -37.79528 h -26.45669 v -45.35433 h 102.04724 v -15.11811 h 68.031499 v 15.11811 H 49.36845 v 45.35433 h 15.118111 z"
       style="fill:none;stroke:#ff0000;stroke-opacity:1"
       id="path1331" />
    <path
       d="m 134.93944,789.33627 v 45.35433 h -22.67717 v 15.11811 H 74.466996 V 834.6906 H 55.569357 V 796.89533 H 78.246522 V 743.98194 H 55.569357 v -37.79528 h 18.897639 v -15.11811 h 37.795274 v 15.11811 h 22.67717 v 49.13386 h 15.11811 v 34.01575 z"
       style="fill:none;stroke:#ff0000;stroke-opacity:1"
       id="path1333" />
    <path
       d="m 132.04478,1032.0103 a 26.456693,26.456693 0 0 1 -23.1957,0 l 3.31367,-6.794 a 18.897638,18.897638 0 0 0 16.56836,0 z"
       style="fill:none;stroke:#ff0000;stroke-opacity:1"
       id="path1335" />
    <path
       d="m 119.79062,1004.5091 a 3.779528,3.779528 0 0 0 -2.68082,1.9477"
       style="fill:none;stroke:#ff0000;stroke-opacity:1"
       id="path1337" />
    <path
       d="m 119.79062,1004.5091 0.65631,3.7221"
       style="fill:none;stroke:#ff0000;stroke-opacity:1"
       id="path1339" />
    <path
       d="m 120.44693,1008.2312 0.6563,-3.7221"
       style="fill:none;stroke:#ff0000;stroke-opacity:1"
       id="path1341" />
    <path
       d="m 123.78405,1006.4568 a 3.779528,3.779528 0 0 0 -2.68082,-1.9477"
       style="fill:none;stroke:#ff0000;stroke-opacity:1"
       id="path1343" />
    <path
       d="m 123.78405,1006.4568 -3.33712,1.7744"
       style="fill:none;stroke:#ff0000;stroke-opacity:1"
       id="path1345" />
    <path
       d="m 120.44693,1008.2312 3.74274,-0.526"
       style="fill:none;stroke:#ff0000;stroke-opacity:1"
       id="path1347" />
    <path
       d="m 123.16569,1010.8567 a 3.779528,3.779528 0 0 0 1.02398,-3.1515"
       style="fill:none;stroke:#ff0000;stroke-opacity:1"
       id="path1349" />
    <path
       d="m 123.16569,1010.8567 -2.71876,-2.6255"
       style="fill:none;stroke:#ff0000;stroke-opacity:1"
       id="path1351" />
    <path
       d="m 120.44693,1008.2312 1.65683,3.397"
       style="fill:none;stroke:#ff0000;stroke-opacity:1"
       id="path1353" />
    <path
       d="m 118.79009,1011.6282 a 3.779528,3.779528 0 0 0 3.31367,0"
       style="fill:none;stroke:#ff0000;stroke-opacity:1"
       id="path1355" />
    <path
       d="m 118.79009,1011.6282 1.65684,-3.397"
       style="fill:none;stroke:#ff0000;stroke-opacity:1"
       id="path1357" />
    <path
       d="m 120.44693,1008.2312 -2.71877,2.6255"
       style="fill:none;stroke:#ff0000;stroke-opacity:1"
       id="path1359" />
    <path
       d="m 116.70418,1007.7052 a 3.779528,3.779528 0 0 0 1.02398,3.1515"
       style="fill:none;stroke:#ff0000;stroke-opacity:1"
       id="path1361" />
    <path
       d="m 116.70418,1007.7052 3.74275,0.526"
       style="fill:none;stroke:#ff0000;stroke-opacity:1"
       id="path1363" />
    <path
       d="m 120.44693,1008.2312 -3.33713,-1.7744"
       style="fill:none;stroke:#ff0000;stroke-opacity:1"
       id="path1365" />
    <path
       d="m 101.7332,1005.6012 -7.485492,-1.052 a 26.456693,26.456693 0 0 0 7.167862,22.0604 l 5.43753,-5.251 a 18.897638,18.897638 0 0 1 -5.1199,-15.7574 z"
       style="fill:none;stroke:#ff0000;stroke-opacity:1"
       id="path1367" />
    <path
       d="m 107.09843,1001.1337 a 15.11811,15.11811 0 0 1 10.72326,-7.79091 l 1.31262,7.44421 a 7.559055,7.559055 0 0 0 -5.36163,3.8955 z"
       style="fill:none;stroke:#ff0000;stroke-opacity:1"
       id="path1369" />
    <path
       d="m 127.07427,1021.8193 a 15.11811,15.11811 0 0 1 -13.25469,0 l 3.31367,-6.794 a 7.559055,7.559055 0 0 0 6.62735,0 z"
       style="fill:none;stroke:#ff0000;stroke-opacity:1"
       id="path1371" />
    <path
       d="m 134.04075,1021.3586 5.43753,5.251 a 26.456693,26.456693 0 0 0 7.16787,-22.0604 l -7.4855,1.052 a 18.897638,18.897638 0 0 1 -5.1199,15.7574 z"
       style="fill:none;stroke:#ff0000;stroke-opacity:1"
       id="path1373" />
    <path
       d="m 127.12118,1004.6825 6.67425,-3.5488 a 15.11811,15.11811 0 0 0 -10.72327,-7.79091 l -1.31262,7.44421 a 7.559055,7.559055 0 0 1 5.36164,3.8955 z"
       style="fill:none;stroke:#ff0000;stroke-opacity:1"
       id="path1375" />
    <path
       d="m 112.96144,1007.1792 -7.4855,-1.052 a 15.11811,15.11811 0 0 0 4.09593,12.6059 l 5.43753,-5.2509 a 7.559055,7.559055 0 0 1 -2.04796,-6.303 z"
       style="fill:none;stroke:#ff0000;stroke-opacity:1"
       id="path1377" />
    <path
       d="m 97.087053,995.81056 a 26.456693,26.456693 0 0 1 18.765717,-13.63409 l 1.31262,7.44422 a 18.897638,18.897638 0 0 0 -13.40409,9.73863 z"
       style="fill:none;stroke:#ff0000;stroke-opacity:1"
       id="path1379" />
    <path
       d="m 125.88446,1013.4822 5.43753,5.2509 a 15.11811,15.11811 0 0 0 4.09592,-12.6059 l -7.48549,1.052 a 7.559055,7.559055 0 0 1 -2.04796,6.303 z"
       style="fill:none;stroke:#ff0000;stroke-opacity:1"
       id="path1381" />
    <path
       d="m 137.13255,999.35932 6.67425,-3.54876 a 26.456693,26.456693 0 0 0 -18.76572,-13.63409 l -1.31261,7.44422 a 18.897638,18.897638 0 0 1 13.40408,9.73863 z"
       style="fill:none;stroke:#ff0000;stroke-opacity:1"
       id="path1383" />
    <path
       d="m 86.431178,1072.4832 v -45.3543 h -15.11811 v -34.01578 h 15.11811 v -49.13386 h 22.677162 v -15.11811 h 37.79528 v 15.11811 h 18.89764 v 45.35433 h -15.11811 v 37.79531 h 15.11811 v 45.3543 h -18.89764 v 15.1181 h -37.79528 v -15.1181 z"
       style="fill:none;stroke:#ff0000;stroke-opacity:1"
       id="path1385" />
    <path
       d="m -177.40321,806.58525 h 120.944886 v -68.0315 H -177.40321 Z"
       style="fill:none;stroke:#ff0000;stroke-opacity:1"
       id="path1387" />
  </g>
  <desc
     id="desc1391">case.dxf - scale = 1.000000, origin = (0.000000, 0.000000), method = manual</desc>
</svg>
