<?xml version="1.0" encoding="UTF-8" standalone="no"?>
<!DOCTYPE svg PUBLIC "-//W3C//DTD SVG 1.1//EN" "http://www.w3.org/Graphics/SVG/1.1/DTD/svg11.dtd">
<svg width="100%" height="100%" viewBox="0 0 1123 1123" version="1.1" xmlns="http://www.w3.org/2000/svg" xmlns:xlink="http://www.w3.org/1999/xlink" xml:space="preserve" xmlns:serif="http://www.serif.com/" style="fill-rule:evenodd;clip-rule:evenodd;stroke-linejoin:round;stroke-miterlimit:2;">
    <g id="Layer1">
        <rect x="0" y="0" width="1122.05" height="1122.05"/>
    </g>
    <g transform="matrix(1,0,0,0.969615,-242.579,-103.097)">
        <rect x="623.46" y="503.209" width="559.825" height="735.557" style="fill:white;"/>
    </g>
    <g transform="matrix(1,0,0,1,-250.579,-140.737)">
        <rect x="653.799" y="503.209" width="515.76" height="178.111"/>
    </g>
    <g transform="matrix(1.04212,0,0,0.656337,-289.289,38.9093)">
        <path d="M911.679,192.409L1169.56,470.129L653.799,470.129L911.679,192.409Z"/>
    </g>
    <g transform="matrix(1.11832,0,0,0.968496,-296.194,-101.71)">
        <rect x="453.13" y="1065.55" width="170.331" height="173.213" style="fill:white;"/>
    </g>
    <g transform="matrix(1.31798,0,0,0.683581,-372.538,251.232)">
        <rect x="335.528" y="1112.07" width="117.601" height="126.695" style="fill:white;"/>
    </g>
    <g transform="matrix(1,0,0,1,-242.579,-120.737)">
        <rect x="467.962" y="870.988" width="9.062" height="194.566" style="fill:white;"/>
    </g>
    <g transform="matrix(1.02308,0,0,1,-273.888,-140.737)">
        <rect x="1183.29" y="885.827" width="173.492" height="352.94" style="fill:white;"/>
    </g>
    <g transform="matrix(0.541034,0,0,0.613942,372.732,201.244)">
        <rect x="1340.64" y="750.442" width="16.132" height="135.384" style="fill:white;"/>
    </g>
    <g transform="matrix(0.622312,0,0,0.254192,254.337,486.84)">
        <rect x="1340.64" y="750.442" width="16.132" height="135.384" style="fill:white;"/>
    </g>
    <g transform="matrix(1,0,0,1,0,-1)">
        <circle cx="1093.64" cy="717.016" r="5.006" style="fill:white;"/>
    </g>
    <g transform="matrix(0.754098,-0.520166,0.349714,0.506989,26.3169,471.13)">
        <rect x="281.141" y="209.416" width="466.475" height="28.765" style="fill:white;"/>
    </g>
    <g transform="matrix(1.01146,0,1.22579e-16,0.615904,141.39,224.634)">
        <rect x="281.141" y="209.416" width="466.475" height="28.765" style="fill:white;"/>
    </g>
    <g transform="matrix(-0.754098,-0.520166,-0.349714,0.506989,1300.11,471.13)">
        <rect x="281.141" y="209.416" width="466.475" height="28.765" style="fill:white;"/>
    </g>
    <g transform="matrix(0.541034,0,0,0.0671487,215.372,685.608)">
        <rect x="1340.64" y="750.442" width="16.132" height="135.384" style="fill:white;"/>
    </g>
    <g transform="matrix(1,0,0,0.825551,-250.579,44.5791)">
        <rect x="653.799" y="844.268" width="249.574" height="218.029"/>
    </g>
    <g transform="matrix(1,0,0,0.825551,-250.579,44.5791)">
        <rect x="918.683" y="844.268" width="250.875" height="218.029"/>
    </g>
    <g transform="matrix(0.841375,0,0,0.825551,-65.0569,44.5791)">
        <rect x="918.683" y="618.374" width="250.875" height="208.789"/>
    </g>
    <g transform="matrix(1,0,0,0.825551,-250.579,44.5791)">
        <rect x="653.799" y="618.374" width="288.454" height="208.789"/>
    </g>
    <g transform="matrix(0.379206,0,0,1.11623,143.713,-246.1)">
        <rect x="625.436" y="735.648" width="20.363" height="81.772"/>
    </g>
    <g transform="matrix(0.379206,0,0,1.11623,158.329,-246.1)">
        <rect x="625.436" y="735.648" width="20.363" height="81.772"/>
    </g>
    <g transform="matrix(0.379206,0,0,1.94178,143.713,-665.687)">
        <rect x="625.436" y="735.648" width="20.363" height="81.772"/>
    </g>
    <g transform="matrix(0.379206,0,0,1.94178,158.329,-665.687)">
        <rect x="625.436" y="735.648" width="20.363" height="81.772"/>
    </g>
    <g transform="matrix(0.379206,0,0,1.94178,412.456,-665.687)">
        <rect x="625.436" y="735.648" width="20.363" height="81.772"/>
    </g>
    <g transform="matrix(0.379206,0,0,1.94178,427.072,-665.687)">
        <rect x="625.436" y="735.648" width="20.363" height="81.772"/>
    </g>
    <g transform="matrix(0.379206,0,0,1.94178,681.199,-859.802)">
        <rect x="625.436" y="735.648" width="20.363" height="81.772"/>
    </g>
    <g transform="matrix(0.379206,0,0,1.94178,695.815,-859.802)">
        <rect x="625.436" y="735.648" width="20.363" height="81.772"/>
    </g>
    <g transform="matrix(0.379206,0,0,1.94178,451.746,-859.802)">
        <rect x="625.436" y="735.648" width="20.363" height="81.772"/>
    </g>
    <g transform="matrix(0.379206,0,0,1.94178,466.363,-859.802)">
        <rect x="625.436" y="735.648" width="20.363" height="81.772"/>
    </g>
    <g transform="matrix(0.873872,0,0,0.873872,174.774,850.822)">
        <g transform="matrix(1,0,0,1,-200,-270)">
            <g id="Layer-1" serif:id="Layer 1">
                <path id="path2451" d="M262.82,32.907C259.329,34.722 256.843,38.063 253.141,39.678C251.351,40.453 246.784,42.784 246.297,41.999C247.785,40.045 248.296,34.599 245.651,34.169C243.98,38.152 241.999,42.09 240.653,46.237C239.172,50.638 238.414,55.47 234.891,58.95C233.036,60.563 230.053,64.69 227.835,63.578C226.115,59.738 230.006,56.908 230.935,53.391C232.03,50.088 234.043,46.484 232.597,43.007C229.221,41.634 231.227,47.772 229.298,49.352C227.637,53.38 223.606,56.744 224.012,61.354C223.607,65.4 223.634,70.485 219.335,72.701C217.129,75.962 212.034,75.421 209.951,78.859C206.574,83.058 204.834,88.214 201.486,92.437C199.966,93.764 195.087,96.569 197.218,92.562C198.989,86.719 198.717,80.174 202.211,74.904C205.425,70.308 210.742,67.032 212.728,61.707C213.019,58.95 216.916,57.442 217.168,53.88C218.853,49.597 219.832,44.824 222.931,41.215C223.125,37.042 216.358,38.889 216.617,42.549C215.456,45.249 214.53,50.98 212.193,51.462C209.631,50.699 211.667,42.258 207.435,45.331C205.499,49.278 208.553,53.495 208.897,57.56C209.926,61.747 204.282,64.919 201.027,67.028C198.193,69.831 196.907,63.471 193.506,66.941C190.796,69.59 195.711,71.352 193.427,73.904C193.008,79.851 192.033,85.744 190.241,91.461C188.952,97.337 186.966,103.034 185.188,108.777C185.103,112.316 184.216,116.266 182.412,119.095C178.237,123.842 175.225,129.478 172.648,135.135C171.225,139.661 169.137,144.209 165.859,147.775C164.06,148.903 162.333,153.277 161.113,155.859C159.796,157.946 160.071,162.831 156.565,159.836C152.894,156.738 148.2,155.227 143.727,153.512C146.639,149.941 149.153,145.619 150.85,141.303C154.226,135.535 160.29,131.75 163.74,126.054C164.817,124.327 167.199,121.217 169.396,118.396C170.846,116.535 173.344,116.081 174.72,114.693C176.046,110.701 170.875,113.637 169.73,115.181C169.563,113.659 172.934,108.537 169.016,109.875C165.686,112.84 167.373,117.493 164.019,120.583C161.319,125.64 157.067,129.925 152.274,133.258C150.9,131.302 152.622,126.067 150.385,123.236C149.814,121.13 150.493,114.299 147.079,116.147C146.192,119.711 148.263,123.149 148.083,126.673C148.529,129.764 148.216,132.936 148.265,136.033C147.105,141.461 143.943,146.287 140.083,150.348C138.203,153.588 133.802,148.62 131.258,147.49C126.433,145.015 132.586,140.511 133.663,137.337C134.683,134.503 139.261,130.423 136.615,127.83C133.149,129.402 132.726,134.158 130.223,136.825C129.295,138.49 127.158,140.758 127.689,137.36C128.545,134.498 127.08,130.589 126.803,128.821C129.596,126.554 131.62,123.324 132.275,119.883C136.029,114.205 133.736,105.711 143.623,104.019C148.011,103.533 150.393,99.359 154.429,98.222C158.138,97.917 162.228,97.167 165.757,98.273C169.345,99.11 173.084,102.033 176.779,100.099C180.553,98.756 177.681,95.932 174.83,97.516C171.14,97.269 167.383,96.2 164.141,94.583C159.894,91.38 168.217,88.499 167.146,85.028C163.372,84.269 160.346,89.728 158.647,92.275C155.634,94.069 151.899,94.879 149.07,97.11C147.406,98.001 143.356,102.255 142.387,99.663C145.583,94.721 146.575,88.409 151.343,84.442C154.185,81.388 157.965,79.028 160.269,75.585C159.85,70.747 156.106,76.617 154.372,77.793C153.014,79.271 150.505,81.548 152.518,78.165C154.824,76.11 152.245,71.504 150.249,75.192C149.82,79.056 147.635,82.171 145.784,85.52C143.673,89.192 144.403,82.089 144.479,80.711C145.717,78.361 142.246,75.266 141.817,78.913C140.569,84.682 141.615,90.741 139.976,96.422C137.589,100.205 133.144,102.791 132,107.317C130.867,112.691 128.521,117.912 125.157,122.363C123.639,120.136 121.212,116.077 121.303,112.918C121.18,108.616 121.354,104.109 118.99,100.255C118.533,99.06 116.222,94.5 116.164,97.628C116.213,101.215 117.673,104.678 117.936,108.267C118.992,111.839 118.441,115.511 118.807,119.117C119.679,123.441 120.246,127.874 122.252,131.887C124.868,139.209 121.177,146.513 126.431,153.098C128.823,155.38 132.074,156.437 135.153,157.595C128.062,164.023 121.259,170.785 113.532,176.531C111.082,179.164 108.966,182.547 108.985,186.148C107.061,188.709 107.486,193.415 107.376,196.96C106.98,200.608 108.422,202.951 103.894,206.406C102.028,209.15 100.014,211.102 98.153,214.027C94.977,219.367 92.413,225.294 92.85,231.552C92.604,233.61 93.445,238.695 92.166,238.96C88.432,233.487 86.651,226.891 86.415,220.409C85.727,214.504 89.565,208.519 87.853,202.692C89.269,198.156 89.062,193.55 91.825,191.655C93.017,182.89 100.799,176.657 106.341,170.163C110.749,164.87 115.853,160.159 120.475,155.051C123.121,153.324 124.929,145.763 119.956,148.601C118.554,154.644 102.307,164.901 100.78,169.307C99.075,165.537 99.8,161.016 102.211,157.674C103.868,151.576 106.145,145.592 108.974,139.898C111.335,138.4 109.826,134.772 107.512,137.439C104.588,140.102 103.823,144.052 101.902,147.307C100.005,144.066 96.729,141.162 97.35,137.143C96.868,134.996 98.723,128.164 95.034,129.61C92.315,134.925 94.815,140.743 97.078,145.721C100.058,149.313 98.584,153.665 97.169,157.527C95.797,162.826 94.294,168.264 94.763,173.759C93.618,177.885 89.798,180.676 87.962,184.513C86.534,186.898 85.591,187.185 85.584,184.33C84.68,181.032 83.563,177.686 83.88,174.243C81.184,169.686 79.914,176.738 80.652,179.004C80.342,183.16 82.275,186.876 82.719,190.898C82.455,196.393 82.163,201.923 83.067,207.386C79.184,208.993 77.345,203.408 75.106,201.137C70.906,194.756 66.71,188.138 64.708,180.79C64.202,177.122 65.981,173.656 65.972,170.045C66.139,166.173 68.001,162.452 67.495,158.566C63.939,156.495 63.901,163.865 63.313,166.122C62.656,167.994 63.437,173.357 62.049,173.156C60.285,170.031 58.109,167.009 56.846,163.7C57.137,161.622 53.277,155.724 52.297,159.73C54.213,165.742 57.181,171.272 59.57,177.131C60.392,180.689 61.616,183.885 63.515,187.027C63.491,189.151 67.528,195.121 62.637,193.279C58.146,193.459 56.317,189.241 53.667,186.744C51.492,186.578 52.4,189.972 50.042,187.574C48.174,185.235 42.214,184.963 46.041,188.427C49.153,191.728 54.056,192.447 57.466,195.365C60.979,197.23 65.322,197.631 68.096,200.677C74.772,206.882 77.832,215.718 78.871,224.361C79.959,228.584 79.823,232.996 80.653,237.215C82.989,239.41 81.962,244.189 84.197,247.195C85.715,250.72 89.87,252.448 93.606,252.874C97.214,252.023 100.405,249.433 104.078,251.806C105.885,252.759 108.386,256.846 108.965,259.694C111.507,271.39 110.374,283.433 110.805,295.288C111.13,298.905 110.44,302.916 112.357,306.172C113.78,307.334 111.284,311.459 112.109,314.017C112.226,323.001 114.15,331.829 115.859,340.622C116.252,346.163 108.819,341.563 107.716,338.835C105.457,335.628 102.132,333.356 98.762,331.328C92.356,325.627 90.524,316.815 90.144,308.805C89.78,304.899 91.02,300.947 90.478,297.1C87.555,295.191 86.405,304.037 82.955,299.017C81.83,297.184 75.857,293.843 77.933,298.103C80.039,300.591 82.373,302.894 84.596,305.286C84.695,310.33 84.302,315.411 85.064,320.42C85.204,322.601 79.432,320.474 77.409,320.544C72.978,319.692 67.931,318.312 65.329,314.511C63.281,311.973 65.206,305.952 61.443,305.383C60.068,307.569 61.246,310.441 61.319,312.897C61.184,314.045 62.247,315.914 61.321,316.586C57.819,317.881 53.831,318.474 50.971,320.912C47.713,319.517 44.462,318.296 41.707,315.96C37.28,316.954 43.393,321.786 45.565,322.627C50.294,324.802 43.755,329.325 41.609,331.566C39.555,334.642 34.71,334.497 34.422,338.244C33.087,340.423 26.742,343.879 29.892,346.115C33.803,344.324 36.137,340.303 40.058,338.415C41.295,340.804 41.383,343.507 41.894,346.082C43.789,346.446 44.132,345.384 43.909,343.802C43.582,336.227 48.082,328.559 55.576,325.609C59.404,323.899 64.018,323.14 67.856,325.288C71.153,327.098 75.596,328.378 78.442,329.742C81.702,330.872 83.75,334.508 87.137,336.598C90.961,338.647 93.443,341.741 95.188,345.425C97.747,347.962 100.16,350.825 102.3,353.464C104.707,354.203 105.316,359.287 108.161,361.21C110.652,363.985 114.911,364.473 116.261,368.359C121.494,377.46 125.395,387.385 127.108,397.65C127.331,401.94 127.359,406.266 128.375,410.48C128.323,413.221 127.198,415.598 128.693,418.844C130.135,430.07 129.352,441.465 131.192,452.651C128.779,455.035 128.541,459.374 125.823,462.165C123.438,465.725 125.363,470.197 129.956,470.164C132.389,472.555 135.902,471.977 137.712,470.524C138.186,472.897 141.398,473.68 142.531,473.747C144.948,479.279 149.345,483.64 155.246,482.179C158.021,484.083 163.117,481.309 163.441,478.114C172.059,478.241 168.806,468.991 174.966,475.947C176.797,475.516 176.68,474.373 175.924,472.997C171.249,459.583 166.391,446.08 164.99,431.924C163.558,423.381 159.987,415.021 160.874,406.23C161.766,401.479 163.918,396.98 164.158,392.082C163.745,387.958 167.246,384.779 166.349,380.582C165.954,371.819 163.693,362.449 157.003,356.036C153.654,353.024 148.944,351.704 146.026,348.177C141.732,344.454 140.105,338.998 139.309,333.706C138.034,325.743 137.561,316.985 134.984,309.899C134.058,303.012 138.552,296.142 137.187,289.392C137.756,285.586 140.157,282.502 142.605,279.591C144.534,276.414 145.538,272.767 148.161,269.917C150.918,265.931 155.263,263.277 157.82,259.133C159.7,256.026 163.347,254.297 164.709,250.885C166.741,246.708 167.817,242.135 170.138,238.089C169.528,233.306 165.213,239.093 164.874,241.232C164.273,245.178 161.51,248.162 158.754,251.022C154.626,255.224 150.712,259.726 145.874,263.209C142.629,264.537 145.246,258.436 145.517,256.751C147.884,250.001 151.169,241.562 150.648,236.007C152.04,224.254 157.615,213.499 163.314,203.163C165.544,199.656 167.424,195.656 170.92,193.118C174.986,192.503 175.087,187.481 178.321,185.807C180.819,183.77 183.669,181.545 186.56,179.53C188.522,175.467 193.474,176.478 197.296,174.601C201.097,172.924 204.373,171.182 208.411,173.505C212.96,175.32 216.255,179.101 219.352,182.615C221.948,186.324 219.479,190.879 220.671,194.923C221.607,200.047 223.789,192.516 223.964,190.683C223.527,188.465 223.78,187.295 225.749,186.62C225.43,183.121 222.097,180.541 220.017,177.8C217.883,176.568 215.724,170.96 220.053,173.813C223.291,174.12 226.539,175.126 229.942,175.253C233.844,175.846 232.295,171.758 229.195,172.736C226.762,171.763 220.231,173.33 221.797,169.221C224.143,167.725 222.485,164.604 220.312,166.993C217.773,169.399 214.178,170.973 210.573,169.974C207.794,169.076 203.423,168.574 201.561,167.668C206.148,162.369 211.765,157.698 218.177,154.481C224.17,152.698 230.663,155.565 236.662,153.609C240.033,153.124 240.14,148.163 236.222,150.424C233.315,152.202 229.971,148.945 226.567,150.483C220.44,150.367 227.004,144.985 229.769,144.413C236.55,141.222 243.749,138.697 251.311,137.951C254.908,137.465 258.913,136.478 262.336,138.003C267.015,140.569 269.658,145.427 274.176,148.116C278.121,146.833 272.014,143.014 270.691,141.203C266.828,137.515 274.047,134.919 276.606,137.943C280.63,140.137 285.262,138.498 289.365,137.412C291.161,137.101 292.936,135.413 289.851,135.755C285.848,135.066 281.524,135.975 277.644,134.495C276.908,132.832 282.493,127.709 277.746,128.639C274.372,131.214 270.952,134.961 266.133,134.253C262.692,133.992 260.866,131.552 264.793,130.289C268.846,127.87 272.449,124.84 276.279,122.163C282.553,119.606 289.451,121.972 295.758,123.257C301.972,124.559 306.405,124.832 312.749,124.822C314.96,127.831 317.051,127.959 318.844,131.412C324.476,142.264 324.755,128.581 320.077,128.011C318.895,126.018 316.053,124.247 319.567,124.897C321.783,125.464 327.915,124.015 323.787,121.807C317.665,120.548 311.401,123.081 305.26,121.59C303.176,121.201 298.389,119.851 298.485,118.578C302.262,117.999 305.1,115.698 308.787,115.019C312.754,113.622 317.156,112.379 321.396,113.042C325.484,115.569 332.925,118.813 335.394,121.593C336.758,122.157 339.123,123.092 340.016,121.413C340.506,119.528 332.654,116.479 331.186,114.98C329.431,114.169 325.226,112.068 329.424,111.848C333.265,111.349 334.371,106.248 329.631,108.382C324.823,109.596 319.7,110.014 314.771,109.325C317.79,105.625 322.381,103.646 326.256,100.958C326.262,96.785 320.085,101.197 318.052,102.306C313.109,105.135 309.335,109.412 304.503,112.366C300.681,112.97 296.866,113.96 293.125,115.033C289.221,115.776 285.153,116.535 281.18,115.925C282.894,109.596 286.875,104.06 289.559,98.075C291.636,96.188 289.443,92.905 287.579,95.779C284.72,98.395 283.672,101.977 281.839,105.184C279.838,108.274 277.758,111.394 276.662,114.861C272.703,119.172 267.342,122.053 262.386,125.213C260.612,126.768 259.12,126.433 257.572,125.266C255.742,126.468 257.043,129.989 253.513,129.567C251.116,130.229 247.316,130.596 249.866,127.442C250.616,123.929 257.771,123.195 255.562,119.238C251.911,118.347 248.726,121.694 246.322,123.958C243.687,127.206 240.366,129.794 236.583,131.754C232.441,133.858 228.436,136.742 223.687,137.375C223.782,133.488 226.93,130.773 229.594,128.238C231.433,125.098 232.994,121.657 236.463,119.667C240.061,117.615 243.894,115.885 246.841,112.916C248.434,111.667 254.097,106.656 249.424,106.672C245.366,108.965 242.518,112.837 238.273,114.889C238.834,110.147 233.376,114.232 232.799,116.539C230.78,119.643 226.996,121.033 226.642,124.778C223.622,127.933 218.075,130.161 218.417,135.175C217.987,141.512 213.944,147.595 208.285,150.9C203.342,153.742 202.147,146.957 202.97,143.671C203.483,138.87 204.79,133.681 208.879,130.474C213.106,125.947 216.46,120.697 221.098,116.529C223.929,113.963 222.274,107.346 227.121,108.128C229.39,108.076 235.249,103.539 231.439,102.757C230.188,103.931 225.454,105.19 225.708,104.308C226.575,100.211 228.25,96.801 231.615,94.024C233.888,90.841 228.723,90.319 228.277,93.569C226.078,97.24 221.401,99.06 220.733,103.637C220.494,106.146 216.109,103.581 213.997,104.375C215.216,100.839 208.767,103.125 206.931,104.042C203.33,105.839 201.586,110.1 196.79,109.179C194.393,110.175 192.806,107.719 195.398,106.986C197.474,101.754 204.002,100.358 207.203,95.938C209.201,92.14 212,88.777 215.085,85.707C217.167,82.454 219.937,79.615 223.693,78.122C226.195,76.417 227.719,73.825 231.1,75.915C236.734,77.979 242.359,80.833 248.492,81.056C252.654,80.858 255.957,84.675 260.414,84.525C262.918,84.054 262.375,87.152 265.234,86.613C266.898,90.168 270.328,92.707 273.14,95.463C274.239,97.569 279.667,99.125 277.576,95.381C275.975,92.869 271.386,90.584 271.945,87.726C275.745,87.141 279.594,89.477 283.22,88.878C283.459,85.712 277.772,85.463 275.236,84.355C270.367,83.676 265.771,82.001 261.146,80.486C258.403,79.9 256.089,80.563 255.884,77.231C260.387,78.57 263.613,74.702 268.032,75.596C272.467,75.773 277.013,75.524 281.335,76.599C284.365,80.169 289.063,80.952 293.045,83.184C294.322,85.161 300.204,86.497 297.694,82.786C294.976,79.336 290.385,78.204 286.858,75.775C287.059,72.969 295.771,76.686 295.315,72.712C291.878,70.311 287.245,71.611 283.338,71.923C279.056,73.714 277.132,69.42 272.761,70.333C265.418,70.52 258.012,71.8 251.346,74.795C247.081,76.768 244.803,73.838 241.129,72.313C238.719,71.353 234.409,69.951 238.235,67.618C242.706,63.533 247.522,59.5 253.243,57.107C256.277,56.272 260.933,55.973 263.136,57.493C266.631,58.548 270.51,58.657 274.093,57.939C277.784,54.317 268.916,54.695 266.492,54.228C264.65,52.02 270.853,50.025 273.076,49.69C278.61,48.951 284.97,49.536 289.344,53.133C293.637,57.575 296.936,62.84 299.981,68.107C301.072,72.127 306.395,68.477 303.18,65.819C302.205,62.426 297.823,59.641 297.907,56.493C300.284,59.813 304.488,61.614 307.679,64.202C311.417,66.934 315.325,70.903 314.317,75.786C314.984,79.567 316.211,83.231 316.539,87.098C315.538,90.124 319.913,90.532 319.066,87.299C318.871,83.658 317.563,80.063 318.511,76.422C322.204,79.447 323.975,83.893 326.452,87.742C328.639,90.392 331.03,93.125 334.227,94.674C338.675,94.166 332.67,89.919 331.419,88.316C329.025,85.321 326.67,82.08 325.685,78.395C329.357,79.51 332.746,81.286 336.496,82.245C341.169,81.578 336.046,78.61 333.78,78.385C330.259,76.889 326.606,75.483 322.806,74.789C319.672,72.562 316.755,69.626 315.655,66.004C313.033,62.417 308.099,60.754 305.863,56.978C312.116,55.456 318.641,55.519 325.029,55.026C330.487,52.607 322.093,51.283 320.959,50.96C322.391,49.479 323.041,43.585 319.741,46.454C317.91,50.033 315.402,53.57 310.652,52.657C305.749,52.724 300.562,52.856 296.003,50.896C295.496,48.059 302.361,48.034 304.868,47.743C308.398,48.236 308.496,43.859 304.936,44.541C303.186,44.721 299.791,45.561 302.659,43.443C304.4,42.57 308.91,38.328 304.503,38.731C300.242,40.273 297.507,44.43 292.805,45.132C288.163,46.131 283.206,45.514 278.8,43.907C275.615,42.262 282.17,36.595 276.533,37.17C274.424,40.149 273.442,43.296 269.519,44.74C266.291,46.316 265.547,50.652 261.223,49.158C256.36,49.183 250.891,48.95 247.073,52.376C245.406,53.455 242.525,56.635 241.938,56.613C243.254,52.899 243.243,48.24 247.508,46.206C251.248,44.078 255.753,41.825 260.16,43.511C262.447,45.189 268.991,42.63 264.595,40.722C262.334,40.418 256.23,40.752 260.575,38.121C261.324,36.931 265.987,33.819 262.82,32.907ZM212.943,107.772C215.281,108.911 221.546,106.349 218.924,110.228C216.452,115.332 212.114,119.324 208.772,123.902C207.094,125.48 203.732,129.998 201.902,128.37C201.105,124.963 200.793,121.477 200.262,118.028C198.392,117.581 197.945,118.591 198.085,120.203C197.733,124.235 196.989,128.445 198.545,132.308C198.528,136.629 197.397,140.916 197.668,145.272C197.977,150.953 197.395,157.147 193.227,161.585C189.87,165.25 186.311,168.973 181.97,171.571C177.838,172.499 175.342,176.242 171.891,178.347C169.629,180.324 165.088,183.006 165.72,178.031C165.447,172.613 165.288,166.907 167.319,161.76C168.866,158.099 171.829,155.207 173.518,151.637C174.898,148.793 178.61,147.557 181.426,146.175C185.201,145.454 190.132,144.72 190.82,140.227C189.996,136.322 195.489,132.619 193.36,129.319C189.411,128.703 188.467,134.077 186.763,136.555C185.949,139.699 182.937,140.963 179.816,140.815C177.856,141.36 179.918,138.994 179.968,138.085C182.785,131.31 186.233,124.534 191.499,119.168C195.144,116.45 200.979,117.405 203.731,113.359C205.83,110.753 209.334,107.858 212.943,107.772ZM138.995,160.474C143.566,160.652 148.052,162.314 150.645,165.858C153.563,167.162 152.68,171.297 154.509,174.061C156.364,182.101 156.574,191.079 152.493,198.554C150.423,200.59 152.257,204.539 149.075,206.384C148.197,208.06 147.151,207.69 146.032,206.426C143.913,204.608 141.22,203.1 140.117,200.495C140.666,196.822 144.154,194.066 145.368,190.515C147.673,186.377 153.753,182.506 153.887,177.654C151.62,175.038 149.823,179.863 148.914,181.635C147.978,182.857 148.261,184.647 146.543,184.48C145.904,181.975 149.277,175.288 145.047,175.648C142.564,178.99 143.872,183.426 142.347,187.134C141.744,188.632 140.254,195.449 139.33,190.863C139.605,188.906 136.604,184.561 136.132,188.443C136.053,193.158 137.341,198.773 133.61,202.576C130.016,204.962 125.762,206.353 122.128,208.733C119.454,211.201 114.985,211.409 115.028,206.941C114.487,204.055 113.024,200.436 116.998,199.654C120.691,196.553 125.454,193.846 127.043,189.164C128.703,185.758 123.591,181.82 122.108,186.489C119.353,189.957 116.234,193.177 112.816,196.063C113.143,192.604 110.295,191.179 112.494,188.078C113.96,185.304 114.786,180.874 117.031,179.859C119.89,177.321 123.198,175.368 125.8,172.549C129.697,168.772 133.553,164.868 137.055,160.8C137.661,160.518 138.339,160.498 138.995,160.474ZM108.566,209.489C109.583,212.921 109.203,217.784 113.296,219.439C117.83,220.402 122.735,219.187 126.744,217.091C128.174,215.749 130.533,213.904 129.023,217.199C126.726,223.188 126.104,230.033 121.464,234.965C119.121,238.347 114.215,237.482 111.83,240.806C109.009,238.819 104.424,239.284 102.718,236.083C101.108,232.618 101.682,228.814 101.971,225.19C102.419,221.856 102.238,219.441 103.636,216.348C104.047,214.855 106.727,211.134 108.566,209.489ZM135.629,213.792C138.82,215.584 140.596,219.712 140.466,223.213C139.479,230.503 135.993,241.528 136.704,244.98C135.328,251.261 133.063,257.351 131.999,263.686C129.835,265.833 129.484,271.701 127.333,272.383C124.735,264.886 122.637,256.971 124.088,249.039C124.601,243.685 125.97,238.314 129.16,233.806C132.398,227.725 132.783,220.806 134.847,214.374L135.281,213.895L135.629,213.792Z" style="fill:white;fill-rule:nonzero;"/>
            </g>
        </g>
    </g>
    <g transform="matrix(0.745342,0,0,0.745342,174.3,105.892)">
        <rect x="518.854" y="408.332" width="88.377" height="88.377" style="fill:rgb(117,117,117);"/>
        <g transform="matrix(1,0,0,0.927922,2.11597,31.534)">
            <rect x="558.811" y="406.066" width="4.232" height="95.242"/>
        </g>
        <g transform="matrix(6.12323e-17,1,-0.927922,5.68189e-17,984.029,-108.406)">
            <rect x="558.811" y="406.066" width="4.232" height="95.242"/>
        </g>
    </g>
    <g transform="matrix(0.745342,0,0,0.745342,379.691,303.979)">
        <rect x="518.854" y="408.332" width="88.377" height="88.377" style="fill:rgb(117,117,117);"/>
        <g transform="matrix(1,0,0,0.927922,2.11597,31.534)">
            <rect x="558.811" y="406.066" width="4.232" height="95.242"/>
        </g>
        <g transform="matrix(6.12323e-17,1,-0.927922,5.68189e-17,984.029,-108.406)">
            <rect x="558.811" y="406.066" width="4.232" height="95.242"/>
        </g>
    </g>
    <g transform="matrix(0.263446,0,0,0.263446,320.21,723.989)">
        <rect x="518.854" y="408.332" width="88.377" height="88.377" style="fill:rgb(117,117,117);"/>
        <g transform="matrix(1,0,0,0.927922,2.11597,31.534)">
            <rect x="558.811" y="406.066" width="4.232" height="95.242"/>
        </g>
        <g transform="matrix(6.12323e-17,1,-0.927922,5.68189e-17,984.029,-108.406)">
            <rect x="558.811" y="406.066" width="4.232" height="95.242"/>
        </g>
    </g>
    <g transform="matrix(0.217923,0,0,0.217923,653.345,704.059)">
        <g transform="matrix(2.00997,0,0,1,-524.026,0)">
            <rect x="518.854" y="408.332" width="88.377" height="88.377" style="fill:rgb(117,117,117);"/>
        </g>
        <g transform="matrix(1,0,0,0.927922,46.7449,31.534)">
            <rect x="558.811" y="406.066" width="4.232" height="95.242"/>
        </g>
        <g transform="matrix(6.12323e-17,1,-1.86509,1.14204e-16,1453.84,-108.406)">
            <rect x="558.811" y="406.066" width="4.232" height="95.242"/>
        </g>
    </g>
    <g transform="matrix(0.745342,0,0,0.745342,286.826,105.892)">
        <rect x="518.854" y="408.332" width="88.377" height="88.377" style="fill:rgb(117,117,117);"/>
        <g transform="matrix(1,0,0,0.927922,2.11597,31.534)">
            <rect x="558.811" y="406.066" width="4.232" height="95.242"/>
        </g>
        <g transform="matrix(6.12323e-17,1,-0.927922,5.68189e-17,984.029,-108.406)">
            <rect x="558.811" y="406.066" width="4.232" height="95.242"/>
        </g>
    </g>
</svg>
